<?xml version="1.0" encoding="UTF-8"?>
<svg width="65px" height="55px" viewbox="0 0 76 55"  version="1.1" xmlns="http://www.w3.org/2000/svg" xmlns:xlink="http://www.w3.org/1999/xlink">
    <title>Meshka</title>
    <g id="Home-Page-1" stroke="none" stroke-width="1" fill="none" fill-rule="evenodd">
        <g id="Home-Page" transform="translate(-1179.000000, -20.000000)" fill-rule="nonzero">
            <g id="Group" transform="translate(1179.000000, 20.000000)">
                <g transform="translate(12.031662, 0.000000)" fill="#CCA167" id="Shape">
                    <path d="M26.3693931,12.9343651 L26.3493404,12.7110087 L26.3493404,12.589178 L26.3292876,12.4673472 L26.3092348,12.2439908 C26.3092348,12.1627703 26.2891821,12.0815498 26.2891821,12.0206344 C26.2691293,11.8784986 26.2490765,11.7160576 26.2290237,11.5739217 L26.1287599,11.1272089 C26.0886544,10.985073 26.0485488,10.822632 26.0084433,10.6804961 C25.8480211,10.0916475 25.6274406,9.50279885 25.3667546,8.95456045 C24.8253298,7.83777853 24.0833773,6.84282737 23.1810026,5.99001209 C22.7398417,5.56360445 22.2385224,5.17780706 21.7171504,4.85292505 C21.1957784,4.52804304 20.6543536,4.24377128 20.0728232,4.00010977 C18.9298153,3.53309188 17.6865435,3.28943037 16.4432718,3.28943037 C15.2,3.26912524 13.9567282,3.49248163 12.7936675,3.93919439 C12.2121372,4.16255078 11.6506596,4.42651741 11.1092348,4.75139942 C10.56781,5.07628143 10.0664908,5.46207882 9.60527704,5.86818134 C8.6828496,6.70069149 7.90079156,7.71594778 7.31926121,8.8327297 C6.73773087,9.94951161 6.376781,11.1881243 6.23641161,12.426737 L6.21635884,12.5485677 L6.21635884,12.6703985 L6.19630607,12.91406 C6.19630607,12.9952805 6.1762533,13.076501 6.1762533,13.1577215 L6.1762533,13.401383 L6.1762533,13.6450445 L6.1762533,13.8684009 L6.1762533,14.2948085 L6.19630607,16.0004391 L6.21635884,17.7060696 L6.23641161,19.4117002 C6.27651715,21.7061794 6.31662269,23.9803535 6.35672823,26.2748327 L6.376781,27.0667326 L7.11873351,27.0464275 L8.32189974,27.0261224 L9.52506596,26.9855121 L10.7081794,26.9449019 L11.3097625,26.9245967 L11.9113456,26.9042916 L14.2775726,26.8230711 L15.4005277,26.7824608 L25.6474934,26.4981891 L26.028496,26.4981891 L26.3292876,13.726265 L26.3292876,13.6450445 L26.3292876,13.4216881 L26.3292876,13.1983317 C26.3894459,13.0968061 26.3693931,13.0155856 26.3693931,12.9343651 Z M8.08126649,17.6857645 L8.10131926,15.980134 L8.12137203,14.2745034 L8.12137203,13.8480958 L8.12137203,13.6247394 L8.12137203,13.4216881 L8.12137203,13.2186369 C8.12137203,13.1577215 8.12137203,13.0968061 8.1414248,13.0358907 L8.16147757,12.8531446 L8.16147757,12.751619 L8.18153034,12.6500933 C8.30184697,11.634837 8.60263852,10.6398859 9.06385224,9.72615523 C9.52506596,8.81242457 10.1667546,8.00021954 10.9087071,7.30984527 C11.6707124,6.61947099 12.5329815,6.0712326 13.4955145,5.70574033 C13.976781,5.5229942 14.4580475,5.38085832 14.9593668,5.27933269 C15.460686,5.17780706 15.9620053,5.13719681 16.4833773,5.11689169 C16.9846966,5.11689169 17.5060686,5.15750194 18.0073879,5.23872244 C18.5087071,5.31994294 19.0100264,5.46207882 19.4912929,5.62451983 C19.9725594,5.80726596 20.4337731,6.03062234 20.874934,6.27428385 C21.316095,6.53825049 21.7372032,6.84282737 22.1382586,7.18801451 C22.9203166,7.85808366 23.582058,8.69059382 24.1034301,9.60432447 C24.3641161,10.0713424 24.5646438,10.5586654 24.7451187,11.0459884 L24.8654354,11.4317858 L24.9656992,11.8175832 C24.985752,11.9394139 25.0258575,12.0815498 25.0459103,12.2033806 C25.0659631,12.2642959 25.0659631,12.3252113 25.0860158,12.4064318 L25.1261214,12.6094831 L25.1461741,12.7110087 L25.1662269,12.8125343 L25.1862797,13.0155856 C25.1862797,13.076501 25.2063325,13.1577215 25.2063325,13.2186369 L25.2263852,13.4216881 L25.246438,13.6247394 L25.246438,13.8277906 L25.2664908,14.2338931 L25.2664908,14.3151136 L25.6675462,25.9296456 L13.6358839,25.6859841 L11.7709763,25.6047636 L11.2094987,25.5844584 L10.6480211,25.5641533 L9.50501319,25.5235431 L8.38205805,25.4829328 L8.02110818,25.4829328 C8.06121372,23.4524202 8.10131926,21.4016025 8.12137203,19.37109 L8.08126649,17.6857645 Z"></path>
                    <path d="M35.7340369,17.117221 L35.8944591,16.95478 L35.9746702,16.8735595 L36.0548813,16.792339 L36.1952507,16.6095929 C36.2353562,16.5486775 36.2955145,16.4877621 36.3356201,16.4268467 C36.4158311,16.305016 36.516095,16.1831852 36.5963061,16.0613545 L36.8369393,15.6755571 C36.9171504,15.5537263 36.9973615,15.4115904 37.0775726,15.2897597 C37.3783641,14.7618264 37.6189974,14.1932829 37.8195251,13.6044342 C38.2205805,12.4470421 38.4010554,11.1881243 38.3408971,9.94951161 C38.3208443,9.32005271 38.2406332,8.71089894 38.1002639,8.10174517 C37.9598945,7.4925914 37.7794195,6.90374275 37.5187335,6.3148941 C37.037467,5.15750194 36.3356201,4.1016354 35.4532982,3.20820987 C34.591029,2.31478433 33.548285,1.58379981 32.4253298,1.05586654 C31.8638522,0.791899904 31.2622691,0.588848646 30.660686,0.42640764 C30.0591029,0.28427176 29.437467,0.182746132 28.8158311,0.14213588 C27.5725594,0.0609153772 26.3092348,0.223356383 25.1261214,0.609153772 C23.9430079,0.994951161 22.8200528,1.58379981 21.8575198,2.37569971 L21.7572559,2.45692021 L21.6770449,2.53814072 L21.4965699,2.70058172 C21.4364116,2.7614971 21.3762533,2.80210735 21.316095,2.86302273 L21.1556728,3.02546373 L20.9952507,3.18790474 L20.8548813,3.35034575 L20.5540897,3.65492263 L19.3709763,4.87323018 L18.1878628,6.09153772 L17.0047493,7.30984527 C15.4205805,8.95456045 13.8564644,10.5992756 12.2923483,12.2439908 L11.7509235,12.8125343 L12.2923483,13.3404676 L13.1546174,14.1729778 L14.0168865,15.0054879 L14.8791557,15.8379981 L15.3203166,16.2441006 L15.7614776,16.6502031 L17.5060686,18.2746132 L18.348285,19.0462079 L25.7878628,26.1733071 L26.0485488,26.4372737 L35.1926121,17.6248491 L35.2527704,17.5639338 L35.4131926,17.4014928 L35.5736148,17.2390518 C35.6337731,17.2390518 35.6939314,17.1781364 35.7340369,17.117221 Z M19.4712401,7.39106577 L20.6744063,6.19306335 L21.8775726,4.99506093 L22.1783641,4.69048405 L22.3187335,4.54834817 L22.4591029,4.42651741 L22.5994723,4.28438153 C22.6395778,4.24377128 22.6997361,4.20316103 22.7398417,4.16255078 L22.8802111,4.04072002 L22.9604222,3.97980464 L23.0406332,3.91888927 C23.8427441,3.26912524 24.7451187,2.80210735 25.7076517,2.49753047 C26.6701847,2.19295358 27.692876,2.0508177 28.7155673,2.11173308 C29.7382586,2.17264845 30.7408971,2.39600484 31.6633245,2.82241248 C32.1245383,3.02546373 32.5656992,3.26912524 32.9868074,3.57370213 C33.4079156,3.85797389 33.808971,4.1828559 34.1699208,4.54834817 C34.5308707,4.91384043 34.8717678,5.29963782 35.1725594,5.72604546 C35.4733509,6.1524531 35.7340369,6.59916586 35.9546174,7.06618376 C36.1751979,7.53320165 36.3556728,8.02052467 36.4759894,8.52815281 C36.6163588,9.03578095 36.6965699,9.5434091 36.7366755,10.0713424 C36.8168865,11.1069038 36.7166227,12.1830754 36.4358839,13.1983317 C36.2955145,13.7059599 36.1150396,14.1932829 35.8744063,14.6806059 L35.6939314,15.025793 L35.4934037,15.3709802 C35.4332454,15.4928109 35.3530343,15.5943366 35.2728232,15.7161673 C35.2327177,15.7770827 35.1926121,15.8176929 35.1525066,15.8786083 L35.03219,16.0410493 L34.9720317,16.1222698 L34.9118734,16.2034903 L34.7915567,16.3659313 C34.7514512,16.4268467 34.7113456,16.467457 34.6712401,16.5283724 L34.5308707,16.6705082 L34.3905013,16.8126441 L34.2501319,16.95478 L33.9693931,17.2593569 L33.9092348,17.3202723 L26.0686016,25.8281199 L17.7266491,17.0360005 L16.4633245,15.6552519 L16.0823219,15.2288443 L15.7013193,14.8024367 L14.9192612,13.9699265 L14.1372032,13.1374164 L13.8965699,12.8734497 C15.3403694,11.472396 16.8042216,10.0510372 18.2480211,8.62967844 L19.4712401,7.39106577 Z"></path>
                    <path d="M39.4437995,26.7824608 L39.6643799,26.7621557 L39.7846966,26.7621557 L39.9050132,26.7418506 L40.1255937,26.7215455 C40.2058047,26.7215455 40.2860158,26.7012403 40.3461741,26.7012403 C40.4865435,26.6809352 40.6469657,26.6606301 40.7873351,26.640325 L41.228496,26.5387993 C41.3688654,26.4981891 41.5292876,26.4575788 41.669657,26.4169686 C42.2511873,26.2545276 42.8327177,26.0311712 43.3741425,25.7672046 C44.4770449,25.2189662 45.4596306,24.4676765 46.301847,23.5539459 C46.7229551,23.1072331 47.1039578,22.5996049 47.4248021,22.0716717 C47.7456464,21.5437384 48.0263852,20.9955 48.2670185,20.4066514 C48.7282322,19.2492592 48.9688654,17.9903414 48.9688654,16.7314236 C48.9889182,15.4725058 48.7683377,14.213588 48.3271768,13.0358907 C48.1065963,12.4470421 47.8459103,11.8784986 47.525066,11.3302602 C47.2042216,10.7820218 46.823219,10.2743936 46.4221636,9.80737573 C45.6,8.87333995 44.5973615,8.08144004 43.4944591,7.4925914 C42.3915567,6.90374275 41.1683377,6.53825049 39.9451187,6.39611461 L39.8248021,6.37580948 L39.7044855,6.37580948 L39.4638522,6.35550436 C39.3836412,6.35550436 39.3034301,6.33519923 39.223219,6.33519923 L38.9825858,6.33519923 L38.7419525,6.33519923 L38.521372,6.33519923 L38.1002639,6.33519923 L36.4158311,6.35550436 L34.7313984,6.37580948 L33.0469657,6.39611461 C30.7810026,6.43672486 28.5350923,6.47733511 26.2691293,6.51794536 L25.4870712,6.53825049 L25.507124,7.28954014 L25.5271768,8.50784768 L25.5672823,9.72615523 L25.6073879,10.9241576 L25.6274406,11.5333114 L25.6474934,12.1424652 L25.7277045,14.53847 L25.76781,15.6755571 L26.0485488,26.0514763 L26.0485488,26.4372737 L38.6617414,26.7418506 L38.7419525,26.7418506 L38.962533,26.7418506 L39.1831135,26.7418506 C39.2833773,26.802766 39.3635884,26.7824608 39.4437995,26.7824608 Z M34.7514512,8.26418618 L36.4358839,8.2844913 L38.1203166,8.30479643 L38.5414248,8.30479643 L38.7620053,8.30479643 L38.962533,8.30479643 L39.1630607,8.30479643 C39.223219,8.30479643 39.2833773,8.30479643 39.3435356,8.32510155 L39.5240106,8.34540668 L39.6242744,8.34540668 L39.7245383,8.3657118 C40.7271768,8.48754256 41.7097625,8.79211944 42.6121372,9.25913734 C43.5145119,9.72615523 44.3166227,10.3759193 44.9984169,11.1272089 C45.6802111,11.8988037 46.2216359,12.7719241 46.5825858,13.7465701 C46.7630607,14.2338931 46.9034301,14.7212162 47.0036939,15.2288443 C47.1039578,15.7364724 47.1440633,16.2441006 47.1641161,16.7720339 C47.1641161,17.279662 47.1240106,17.8075953 47.0437995,18.3152234 C46.9635884,18.8228516 46.823219,19.3304797 46.6627968,19.8178027 C46.4823219,20.3051257 46.2617414,20.7721436 46.0211082,21.2188564 C45.7604222,21.6655692 45.4596306,22.0919768 45.1187335,22.4980793 C44.4569921,23.2899792 43.6348285,23.9600484 42.7324538,24.4879816 C42.2712401,24.7519483 41.7899736,24.9549995 41.3087071,25.1377457 L40.9277045,25.2595764 L40.5467018,25.361102 C40.4263852,25.3814072 40.2860158,25.4220174 40.1656992,25.4423225 C40.1055409,25.4626277 40.0453826,25.4626277 39.9651715,25.4829328 L39.7646438,25.5235431 L39.6643799,25.5438482 L39.5641161,25.5641533 L39.3635884,25.5844584 C39.3034301,25.5844584 39.223219,25.6047636 39.1630607,25.6047636 L38.962533,25.6250687 L38.7620053,25.6453738 L38.5614776,25.6453738 L38.1604222,25.6656789 L38.0802111,25.6656789 L26.6100264,26.0717814 L26.8506596,13.888706 L26.9308707,12.0003293 L26.9509235,11.4317858 L26.9709763,10.8632423 L27.0110818,9.7058501 L27.0511873,8.56876306 L27.0511873,8.2032708 C29.0564644,8.24388105 31.0817942,8.2844913 33.0870712,8.30479643 L34.7514512,8.26418618 Z"></path>
                    <path d="M35.3129288,36.2649546 L35.4733509,36.4273956 L35.553562,36.5086161 L35.6337731,36.5898366 L35.814248,36.7319725 C35.8744063,36.7725827 35.9345646,36.8334981 35.994723,36.8741083 C36.1150396,36.9553288 36.2353562,37.0568545 36.3556728,37.138075 L36.7366755,37.3817365 C36.8569921,37.462957 36.9973615,37.5441775 37.1176781,37.625398 C37.6390501,37.9299749 38.2005277,38.1736364 38.782058,38.3766876 C39.925066,38.7827902 41.1683377,38.9655363 42.3915567,38.9046209 C43.0131926,38.8843158 43.6147757,38.8030953 44.2163588,38.6609594 C44.817942,38.5188235 45.3994723,38.3360774 45.9810026,38.0721108 C47.1240106,37.5847877 48.1667546,36.8741083 49.0490765,35.9806828 C49.9313984,35.1075624 50.6532982,34.0516959 51.1746702,32.9146088 C51.4353562,32.3460653 51.6358839,31.7369115 51.7963061,31.1277578 C51.9366755,30.518604 52.0369393,29.8891451 52.0770449,29.2596862 C52.1572559,28.0007684 51.9968338,26.7215455 51.6158311,25.5235431 C51.2348285,24.3255406 50.6532982,23.1884536 49.8712401,22.2138076 L49.791029,22.1122819 L49.7108179,22.0310614 L49.5503958,21.8483153 C49.4902375,21.7873999 49.4501319,21.7264845 49.3899736,21.6655692 L49.2295515,21.5031282 L49.0691293,21.3406872 L48.9087071,21.1985513 L48.6079156,20.8939744 L47.4047493,19.695972 L46.2015831,18.4979695 L44.9984169,17.2999671 C43.3741425,15.6958622 41.7498681,14.1120624 40.1255937,12.5282626 L39.5641161,11.9800242 L39.0427441,12.5282626 L38.2205805,13.401383 L37.3984169,14.2745034 L36.5762533,15.1476238 L36.1751979,15.5943366 L35.7741425,16.0410493 L34.1699208,17.8075953 L33.4079156,18.6604106 L26.3693931,26.1936122 L26.1087071,26.4575788 L34.8116095,35.7167162 L34.8717678,35.7776316 L35.03219,35.9400726 L35.1926121,36.1025136 C35.1926121,36.1634289 35.2527704,36.2243443 35.3129288,36.2649546 Z M44.9182058,19.7974976 L46.1013193,21.0158051 L47.2844327,22.2341127 L47.5852243,22.5386896 L47.7255937,22.6808254 L47.8459103,22.8229613 L47.9862797,22.9650972 C48.0263852,23.0057075 48.0664908,23.0666228 48.1065963,23.1072331 L48.2269129,23.249369 L48.2870712,23.3305895 L48.3472296,23.41181 C48.9889182,24.224015 49.4501319,25.1377457 49.7509235,26.1123917 C50.051715,27.0870377 50.1920844,28.1225991 50.1319261,29.1581606 C50.0717678,30.193722 49.8511873,31.2089783 49.4300792,32.143014 C49.2295515,32.6100319 48.9889182,33.0567447 48.6881266,33.4831523 C48.4073879,33.90956 48.0865435,34.3156625 47.7255937,34.6811548 C47.3646438,35.046647 46.9836412,35.3918342 46.562533,35.696411 C46.1414248,36.0009879 45.7002639,36.2649546 45.2390501,36.488311 C44.7778364,36.7116673 44.2965699,36.8944135 43.7952507,37.0162442 C43.2939314,37.1583801 42.7926121,37.2396006 42.2712401,37.2802109 C41.2485488,37.3614314 40.185752,37.2599057 39.1831135,36.975634 C38.6817942,36.8334981 38.2005277,36.650752 37.7192612,36.4070904 L37.3783641,36.2243443 L37.037467,36.0212931 C36.9171504,35.9603777 36.8168865,35.8791572 36.6965699,35.7979367 C36.6364116,35.7573264 36.5963061,35.7167162 36.5361478,35.6761059 L36.3757256,35.5542752 L36.2955145,35.4933598 L36.2153034,35.4324444 L36.0548813,35.3106137 C35.994723,35.2700034 35.9546174,35.2293932 35.8944591,35.1887829 L35.7540897,35.046647 L35.6137203,34.9045111 L35.4733509,34.7623753 L35.1725594,34.4781035 L35.1124011,34.4171881 L26.7102902,26.477884 L35.3931398,18.0309517 L36.7567282,16.7517287 L37.1778364,16.3659313 L37.5989446,15.980134 L38.4211082,15.1882341 L39.2432718,14.3963341 L39.5039578,14.1526726 C40.8875989,15.6146417 42.2912929,17.0969159 43.6949868,18.5588849 L44.9182058,19.7974976 Z"></path>
                    <path d="M25.76781,40.0214028 L25.7878628,40.2447592 L25.7878628,40.36659 L25.8079156,40.4884207 L25.8279683,40.7117771 C25.8279683,40.7929976 25.8480211,40.8742181 25.8480211,40.9351335 C25.8680739,41.0772694 25.8881266,41.2397104 25.9081794,41.3818463 L26.0084433,41.828559 C26.0485488,41.9706949 26.0886544,42.1331359 26.1287599,42.2752718 C26.2891821,42.8641204 26.5097625,43.4529691 26.7704485,44.0012075 C27.3118734,45.1179894 28.0538259,46.1129406 28.9562005,46.9657558 C29.3973615,47.3921635 29.8986807,47.7779609 30.4200528,48.1028429 C30.9414248,48.4277249 31.4828496,48.7119966 32.0643799,48.9556582 C33.2073879,49.422676 34.4506596,49.6663376 35.6939314,49.6663376 C36.9372032,49.6866427 38.1804749,49.4632863 39.3435356,49.0165735 C39.925066,48.7932171 40.4865435,48.5292505 41.0279683,48.2043685 C41.5693931,47.8794865 42.0707124,47.4936891 42.5319261,47.0875866 C43.4543536,46.2550764 44.2364116,45.2398201 44.817942,44.1230382 C45.3994723,43.0062563 45.7604222,41.7676436 45.9007916,40.529031 L45.9208443,40.4072002 L45.9208443,40.2853695 L45.9408971,40.041708 C45.9408971,39.9604875 45.9609499,39.8792669 45.9609499,39.7980464 L45.9609499,39.5543849 L45.9609499,39.3107234 L45.9609499,39.087367 L45.9609499,38.6609594 L45.9408971,36.9553288 L45.9208443,35.2496983 L45.9007916,33.5440677 C45.860686,31.2495885 45.8205805,28.9754144 45.7804749,26.6809352 L45.7604222,25.8890353 L45.0184697,25.9093404 L43.8153034,25.9296456 L42.6121372,25.9702558 L41.4290237,26.0108661 L40.8274406,26.0311712 L40.2258575,26.0514763 L37.8596306,26.1326968 L36.7366755,26.1733071 L26.4897098,26.4575788 L26.1087071,26.4575788 L25.8079156,39.2295029 L25.8079156,39.3107234 L25.8079156,39.5340798 L25.8079156,39.7574362 C25.7477573,39.8589618 25.76781,39.9401823 25.76781,40.0214028 Z M44.0559367,35.2700034 L44.0358839,36.975634 L44.0158311,38.6812645 L44.0158311,39.1076722 L44.0158311,39.3310286 L44.0158311,39.5340798 L44.0158311,39.7371311 C44.0158311,39.7980464 44.0158311,39.8589618 43.9957784,39.9198772 L43.9757256,40.1026233 L43.9757256,40.204149 L43.9556728,40.3056746 C43.8353562,41.3209309 43.5345646,42.315882 43.0733509,43.2296127 C42.6121372,44.1433434 41.9704485,44.9555484 41.228496,45.6459227 C40.4664908,46.3362969 39.6042216,46.8845353 38.6416887,47.2500276 C38.1604222,47.4327737 37.6791557,47.5749096 37.1778364,47.6764352 C36.6765172,47.7779609 36.1751979,47.8185711 35.6538259,47.8388762 C35.1525066,47.8388762 34.6311346,47.798266 34.1298153,47.7170455 C33.628496,47.635825 33.1271768,47.4936891 32.6459103,47.3312481 C32.1646438,47.148502 31.7034301,46.9251456 31.2622691,46.6814841 C30.8211082,46.4175174 30.4,46.1129406 29.9989446,45.7677534 C29.2168865,45.0976843 28.5551451,44.2651741 28.0337731,43.3514435 C27.7730871,42.8844256 27.5725594,42.3971025 27.3920844,41.9097795 L27.2717678,41.5239821 L27.171504,41.1381847 C27.1514512,41.016354 27.1113456,40.8742181 27.0912929,40.7523874 C27.0712401,40.691472 27.0712401,40.6305566 27.0511873,40.5493361 L27.0110818,40.3462848 L26.991029,40.2447592 L26.9709763,40.1432336 L26.9509235,39.9401823 C26.9509235,39.8792669 26.9308707,39.7980464 26.9308707,39.7371311 L26.9108179,39.5340798 L26.8907652,39.3310286 L26.8907652,39.1279773 L26.8707124,38.7218748 L26.8707124,38.6406543 L26.469657,27.0261224 L38.5013193,27.2697839 L40.3662269,27.3510044 L40.9277045,27.3713095 L41.4891821,27.3916146 L42.63219,27.4322249 L43.7551451,27.4728351 L44.116095,27.4728351 C44.0759894,29.5033477 44.0358839,31.5541654 44.0158311,33.584678 L44.0559367,35.2700034 Z"></path>
                    <path d="M16.4031662,35.8385469 L16.2427441,36.0009879 L16.162533,36.0822084 L16.0823219,36.1634289 L15.9419525,36.3461751 C15.901847,36.4070904 15.8416887,36.4680058 15.8015831,36.5289212 C15.721372,36.650752 15.6211082,36.7725827 15.5408971,36.8944135 L15.3002639,37.2802109 C15.2200528,37.4020416 15.1398417,37.5441775 15.0596306,37.6660082 C14.7588391,38.1939415 14.5182058,38.762485 14.3176781,39.3513337 C13.9166227,40.5087258 13.7361478,41.7676436 13.7963061,43.0062563 C13.8163588,43.6357152 13.8965699,44.244869 14.0369393,44.8540228 C14.1773087,45.4631765 14.3577836,46.0520252 14.6184697,46.6408738 C15.0997361,47.798266 15.8015831,48.8541325 16.683905,49.7475581 C17.5461741,50.6409836 18.5889182,51.3719681 19.7118734,51.8999014 C20.2733509,52.163868 20.874934,52.3669193 21.4765172,52.5293603 C22.0781003,52.6714962 22.6997361,52.7730218 23.321372,52.813632 C24.5646438,52.8948525 25.8279683,52.7324115 27.0110818,52.3466142 C28.1941953,51.9608168 29.3171504,51.3719681 30.2796834,50.5800682 L30.3799472,50.4988477 L30.4601583,50.4176272 L30.6406332,50.2551862 C30.7007916,50.1942708 30.7609499,50.1536606 30.8211082,50.0927452 L30.9815303,49.9303042 L31.1419525,49.7678632 L31.2823219,49.6054222 L31.5831135,49.3008453 L32.7662269,48.0825377 L33.9493404,46.8642302 L35.1324538,45.6459227 C36.7166227,44.0012075 38.2807388,42.3564923 39.8448549,40.7117771 L40.3862797,40.1432336 L39.8448549,39.6153003 L38.9825858,38.7827902 L38.1203166,37.95028 L37.2580475,37.1177698 L36.8168865,36.7116673 L36.3757256,36.3055648 L34.6311346,34.6811548 L33.7889182,33.90956 L26.3493404,26.7824608 L26.0886544,26.5184942 L16.944591,35.3309188 L16.8844327,35.3918342 L16.7240106,35.5542752 L16.5635884,35.7167162 C16.5034301,35.7167162 16.4432718,35.7776316 16.4031662,35.8385469 Z M32.6659631,45.5647022 L31.4627968,46.7627046 L30.2596306,47.960707 L29.9588391,48.2652839 L29.8184697,48.4074198 L29.6781003,48.5292505 L29.5377309,48.6713864 C29.4976253,48.7119966 29.437467,48.7526069 29.3973615,48.7932171 L29.2569921,48.9150479 L29.176781,48.9759633 L29.0965699,49.0368787 C28.2944591,49.6866427 27.3920844,50.1536606 26.4295515,50.4582375 C25.4670185,50.7628143 24.4443272,50.9049502 23.4216359,50.8440348 C22.3989446,50.7831195 21.3963061,50.5597631 20.4738786,50.1333554 C20.0126649,49.9303042 19.571504,49.6866427 19.1503958,49.3820658 C18.7292876,49.097794 18.3282322,48.772912 17.9672823,48.4074198 C17.6063325,48.0419275 17.2654354,47.6561301 16.9646438,47.2297225 C16.6638522,46.8033148 16.4031662,46.3566021 16.1825858,45.8895842 C15.9620053,45.4225663 15.7815303,44.9352433 15.6612137,44.4276151 C15.5208443,43.919987 15.4406332,43.4123588 15.4005277,42.8844256 C15.3203166,41.8488641 15.4205805,40.7726925 15.7013193,39.7574362 C15.8416887,39.2498081 16.0221636,38.762485 16.2627968,38.275162 L16.4432718,37.9299749 L16.6437995,37.5847877 C16.7039578,37.462957 16.7841689,37.3614314 16.8643799,37.2396006 C16.9044855,37.1786852 16.944591,37.138075 16.9846966,37.0771596 L17.1050132,36.9147186 L17.1651715,36.8334981 L17.2253298,36.7522776 L17.3456464,36.5898366 C17.385752,36.5289212 17.4258575,36.488311 17.4659631,36.4273956 L17.6063325,36.2852597 L17.7467018,36.1431238 L17.8870712,36.0009879 L18.16781,35.696411 L18.2279683,35.6354957 L26.0686016,27.127648 L34.4105541,35.9197674 L35.6738786,37.300516 L36.0548813,37.7269236 L36.4358839,38.1533313 L37.217942,38.9858414 L38,39.8183516 L38.2406332,40.0823182 C36.7968338,41.4833719 35.3329815,42.9047307 33.8891821,44.3260895 L32.6659631,45.5647022 Z"></path>
                    <path d="M12.6934037,26.1733071 L12.4728232,26.1936122 L12.3525066,26.1936122 L12.23219,26.2139173 L12.0116095,26.2342225 C11.9313984,26.2342225 11.8511873,26.2545276 11.791029,26.2545276 C11.6506596,26.2748327 11.4902375,26.2951378 11.3498681,26.315443 L10.9087071,26.4169686 C10.7683377,26.4575788 10.6079156,26.4981891 10.4675462,26.5387993 C9.88601583,26.7012403 9.30448549,26.9245967 8.76306069,27.1885634 C7.66015831,27.7368018 6.67757256,28.4880914 5.8353562,29.4018221 C5.41424802,29.8485348 5.03324538,30.356163 4.71240106,30.8840962 C4.39155673,31.4120295 4.11081794,31.9602679 3.8701847,32.5491166 C3.40897098,33.7065087 3.16833773,34.9654265 3.16833773,36.2243443 C3.14828496,37.4832621 3.36886544,38.7421799 3.81002639,39.9198772 C4.03060686,40.5087258 4.29129288,41.0772694 4.6121372,41.6255078 C4.93298153,42.1737462 5.31398417,42.6813743 5.71503958,43.1483922 C6.53720317,44.082428 7.53984169,44.8743279 8.64274406,45.4631765 C9.74564644,46.0520252 10.9688654,46.4175174 12.1920844,46.5596533 L12.3124011,46.5799584 L12.4327177,46.5799584 L12.6733509,46.6002636 C12.753562,46.6002636 12.8337731,46.6205687 12.9139842,46.6205687 L13.1546174,46.6205687 L13.3952507,46.6205687 L13.6158311,46.6205687 L14.0369393,46.6205687 L15.721372,46.6002636 L17.4058047,46.5799584 L19.0902375,46.5596533 C21.3562005,46.5190431 23.6021108,46.4784328 25.8680739,46.4378226 L26.6501319,46.4175174 L26.6300792,45.6662278 L26.6100264,44.4479202 L26.5699208,43.2296127 L26.5298153,42.0316103 L26.5097625,41.4224565 L26.4897098,40.8133027 L26.4094987,38.4172979 L26.3693931,37.2802109 L26.0886544,26.9042916 L26.0886544,26.5184942 L13.4754617,26.2139173 L13.3952507,26.2139173 L13.1746702,26.2139173 L12.9540897,26.2139173 C12.8538259,26.153002 12.7736148,26.1733071 12.6934037,26.1733071 Z M17.385752,44.6915817 L15.7013193,44.6712766 L14.0168865,44.6509715 L13.5957784,44.6509715 L13.3751979,44.6509715 L13.1746702,44.6509715 L12.9741425,44.6509715 C12.9139842,44.6509715 12.8538259,44.6509715 12.7936675,44.6306664 L12.6131926,44.6103612 L12.5129288,44.6103612 L12.4126649,44.5900561 C11.4100264,44.4682254 10.4274406,44.1636485 9.52506596,43.6966306 C8.62269129,43.2296127 7.82058047,42.5798487 7.13878628,41.828559 C6.45699208,41.0569642 5.91556728,40.1838438 5.55461741,39.2091978 C5.37414248,38.7218748 5.23377309,38.2345518 5.13350923,37.7269236 C5.03324538,37.2192955 4.99313984,36.7116673 4.97308707,36.1837341 C4.97308707,35.6761059 5.01319261,35.1481727 5.09340369,34.6405445 C5.17361478,34.1329164 5.31398417,33.6252882 5.47440633,33.1379652 C5.65488127,32.6506422 5.87546174,32.1836243 6.11609499,31.7369115 C6.376781,31.2901988 6.67757256,30.8637911 7.01846966,30.4576886 C7.68021108,29.6657887 8.50237467,28.9957196 9.40474934,28.4677863 C9.86596306,28.2038197 10.3472296,28.0007684 10.828496,27.8180223 L11.2094987,27.6961915 L11.5905013,27.5946659 C11.7108179,27.5743608 11.8511873,27.5337505 11.971504,27.5134454 C12.0316623,27.4931402 12.0918206,27.4931402 12.1720317,27.4728351 L12.3725594,27.4322249 L12.4728232,27.4119197 L12.5730871,27.3916146 L12.7736148,27.3713095 C12.8337731,27.3713095 12.9139842,27.3510044 12.9741425,27.3510044 L13.1746702,27.3306992 L13.3751979,27.3103941 L13.5757256,27.3103941 L13.976781,27.290089 L14.0569921,27.290089 L25.5271768,26.8839865 L25.2865435,39.0670619 L25.2063325,40.9554386 L25.1862797,41.5239821 L25.1662269,42.0925257 L25.1261214,43.2499178 L25.0860158,44.3870049 L25.0860158,44.7524971 C23.0807388,44.7118869 21.055409,44.6712766 19.0501319,44.6509715 L17.385752,44.6915817 Z"></path>
                    <path d="M16.8242744,16.6908134 L16.6638522,16.5283724 L16.5836412,16.4471518 L16.5034301,16.3659313 L16.3229551,16.2237955 C16.2627968,16.1831852 16.2026385,16.1222698 16.1424802,16.0816596 C16.0221636,16.0004391 15.901847,15.8989135 15.7815303,15.8176929 L15.4005277,15.5740314 C15.2802111,15.4928109 15.1398417,15.4115904 15.0195251,15.3303699 C14.498153,15.025793 13.9366755,14.7821315 13.3551451,14.5790803 C12.2121372,14.1729778 10.9688654,13.9902316 9.74564644,14.051147 C9.12401055,14.0714521 8.52242744,14.1526726 7.92084433,14.2948085 C7.31926121,14.4369444 6.73773087,14.6196905 6.15620053,14.8836572 C5.01319261,15.3709802 3.97044855,16.0816596 3.08812665,16.9750851 C2.20580475,17.8482055 1.48390501,18.9040721 0.962532982,20.0411591 C0.701846966,20.6097026 0.501319261,21.2188564 0.340897098,21.8280102 C0.200527704,22.4371639 0.100263852,23.0666228 0.0601583113,23.6960817 C-0.0200527704,24.9549995 0.140369393,26.2342225 0.521372032,27.4322249 C0.90237467,28.6302273 1.48390501,29.7673143 2.26596306,30.7419604 L2.34617414,30.843486 L2.42638522,30.9247065 L2.58680739,31.1074526 C2.6469657,31.168368 2.68707124,31.2292834 2.74722955,31.2901988 L2.90765172,31.4526398 L3.06807388,31.6150808 L3.22849604,31.7572167 L3.5292876,32.0617935 L4.73245383,33.259796 L5.93562005,34.4577984 L7.13878628,35.6558008 C8.76306069,37.2599057 10.3873351,38.8437055 12.0116095,40.4275053 L12.5730871,40.9757437 L13.0944591,40.4275053 L13.9166227,39.5543849 L14.7387863,38.6812645 L15.5609499,37.8081441 L15.9620053,37.3614314 L16.3630607,36.9147186 L17.9672823,35.1481727 L18.7292876,34.2953574 L25.76781,26.7621557 L26.028496,26.4981891 L17.3255937,17.2390518 L17.2654354,17.1781364 L17.1050132,17.0156954 L16.944591,16.8532544 C16.944591,16.792339 16.8844327,16.7314236 16.8242744,16.6908134 Z M7.21899736,33.1582703 L6.03588391,31.9399628 L4.85277045,30.7216552 L4.55197889,30.4170784 L4.4116095,30.2749425 L4.29129288,30.1328066 L4.15092348,29.9906707 C4.11081794,29.9500605 4.0707124,29.8891451 4.03060686,29.8485348 L3.91029024,29.706399 L3.85013193,29.6251785 L3.78997361,29.5439579 C3.14828496,28.7317529 2.68707124,27.8180223 2.38627968,26.8433762 C2.08548813,25.8687302 1.94511873,24.8331688 2.00527704,23.7976074 C2.06543536,22.762046 2.28601583,21.7467897 2.70712401,20.8127539 C2.90765172,20.345736 3.14828496,19.8990232 3.44907652,19.4726156 C3.7298153,19.0462079 4.05065963,18.6401054 4.4116095,18.2746132 C4.77255937,17.9091209 5.15356201,17.5639338 5.57467018,17.2593569 C5.99577836,16.95478 6.43693931,16.6908134 6.89815303,16.467457 C7.35936675,16.2441006 7.84063325,16.0613545 8.34195251,15.9395237 C8.84327177,15.7973878 9.34459103,15.7161673 9.86596306,15.6755571 C10.8886544,15.5943366 11.9514512,15.6958622 12.9540897,15.980134 C13.455409,16.1222698 13.9366755,16.305016 14.417942,16.5486775 L14.7588391,16.7314236 L15.0997361,16.9344749 C15.2200528,16.9953902 15.3203166,17.0766107 15.4406332,17.1578312 C15.5007916,17.1984415 15.5408971,17.2390518 15.6010554,17.279662 L15.7614776,17.4014928 L15.8416887,17.4624081 L15.9218997,17.5233235 L16.0823219,17.6451543 C16.1424802,17.6857645 16.1825858,17.7263748 16.2427441,17.766985 L16.3831135,17.9091209 L16.5234828,18.0512568 L16.6638522,18.1933927 L16.9646438,18.4776644 L17.0248021,18.5385798 L25.4269129,26.477884 L16.7440633,34.9248163 L15.3804749,36.2040392 L14.9593668,36.5898366 L14.5382586,36.975634 L13.716095,37.7675339 L12.8939314,38.5594338 L12.6332454,38.8030953 C11.2496042,37.3411262 9.84591029,35.8588521 8.44221636,34.396883 L7.21899736,33.1582703 Z"></path>
                </g>
            </g>
        </g>
    </g>
</svg>