<?xml version="1.0" encoding="UTF-8"?>
<svg id="Layer_1" xmlns="http://www.w3.org/2000/svg" version="1.1" viewBox="0 0 1000 1000">
  <!-- Generator: Adobe Illustrator 30.1.0, SVG Export Plug-In . SVG Version: 2.1.1 Build 136)  -->
  <defs>
    <style>
      .st0 {
        fill: #c69c6d;
      }
    </style>
  </defs>
  <path class="st0" d="M616.33,421.37c.2.21.39.42.6.64v10.41c.15.15.29.29.43.43.05.08.13.16.13.23,0,7.34,0,14.68,0,21.95l-.5.5c-.18.72-.04,1.49-.07,2.25-.03.77,0,1.55,0,2.32v7.25c0,.77.02,1.55,0,2.32-.03.76.11,1.53-.07,2.25-.16.16-.3.3-.47.47v9.8c-.2.23-.38.44-.6.69v7.48c-.2.22-.4.43-.6.64v8.68c-.2.21-.39.42-.6.64v8.67c-.15.15-.29.29-.43.43-.05.08-.12.15-.13.23-.02.19,0,.39,0,.58,0,2.8,0,5.61,0,8.41,0,.09-.04.18-.06.26-.14.14-.27.27-.44.44-.18.72-.04,1.49-.07,2.25-.03.77,0,1.55,0,2.32,0,.68.02,1.35,0,2.03-.03.76.11,1.53-.07,2.25l-.47.47v8.64c-.2.23-.38.44-.6.69v9.23c-.2.22-.4.43-.6.64v8.1c-.2.21-.39.42-.6.64v8.67c-.15.15-.29.29-.47.47-.26,1.17.04,2.42-.14,3.56-1.49,1.49-2.92,2.92-4.38,4.38h-.52c-.15.15-.28.29-.42.42-.28.25-.57.49-.86.73-.57-.16-.74.57-1.21.56-.46-.01-.66.31-.96.58h-1.12c-.22.2-.43.39-.65.6h-.55c-.21.2-.42.4-.64.6h-1.69c-.24.21-.45.4-.68.6h-1.68l-.44.44c-.82.28-1.7-.06-2.53.2-.14.14-.27.27-.45.45h-13.86c-.23.2-.44.38-.67.58-8.42.15-12.43.11-14.1-.13-.04-.08-.12-.16-.12-.24,0-30.93,0-61.86,0-92.72.21-.21.34-.34.48-.48.03-.08.09-.17.09-.25,0-7.83,0-15.66,0-23.49,0-.08-.06-.16-.1-.25-.14-.14-.27-.27-.44-.44v-11.54c-.2-.23-.38-.44-.6-.68v-6.91c-.2-.22-.4-.43-.6-.64v-5.2c-.2-.22-.39-.42-.6-.64v-4.03l-.47-.47c-.23-.7-.05-1.47-.08-2.22-.03-.67,0-1.34,0-1.93l-.54-.54c-.12-1.16.04-2.41-.09-3.57l-.5-.5v-2.84c-.2-.23-.39-.44-.6-.68v-2.85c-.2-.22-.4-.43-.6-.64v-2.29c-.2-.22-.4-.43-.6-.65v-2.28c-.16-.16-.29-.29-.46-.46-.28-.8.05-1.67-.18-2.5-.14-.14-.27-.27-.41-.41-.03-.08-.09-.17-.09-.25,0-.68,0-1.35,0-2.09-.15-.18-.33-.39-.55-.66v-2.23c-.2-.23-.39-.44-.6-.67v-1.69c-.2-.22-.4-.43-.6-.64v-1.71c-.2-.22-.4-.43-.6-.65v-1.7c-.16-.16-.3-.3-.43-.43-.24-.55-.08-1.13-.13-1.78-.12-.16-.29-.37-.5-.64-.15-.49-.04-1.07-.07-1.7-.15-.18-.33-.39-.55-.66v-1.08c-.2-.22-.39-.44-.6-.67v-1.69c-.2-.22-.4-.43-.6-.65v-1.12c-.21-.23-.4-.44-.6-.66v-1.7c-.16-.16-.3-.3-.47-.47-.05-.42-.1-.87-.15-1.31-.15-.15-.29-.29-.47-.47v-1.08c-.2-.23-.38-.45-.6-.71v-1.08c-.2-.22-.39-.43-.6-.66v-1.12c-.2-.22-.4-.43-.6-.65v-1.12c-.21-.23-.4-.44-.6-.66v-1.11c-.16-.16-.3-.3-.47-.47-.05-.42-.1-.87-.15-1.31-.16-.16-.3-.3-.47-.47v-.93c-.16-.59-.88-.74-.57-1.34-.23-.25-.42-.46-.62-.68v-1.13c-.2-.22-.39-.43-.6-.65v-1.13c-.41-.31-.67-.68-.63-1.2-.14-.14-.28-.28-.41-.41-.04-.18-.12-.36-.1-.53.05-.52-.08-.94-.51-1.24-.06-.48-.17-.92-.64-1.19v-1.15c-.2-.22-.4-.43-.6-.65v-.55c-.2-.21-.4-.42-.6-.64v-1.13c-.25-.3-.64-.48-.57-.95.01-.08-.01-.23-.06-.25-.57-.3-.38-1.04-.82-1.41-.07-.06-.14-.14-.24-.24v-1.1c-.2-.23-.38-.44-.58-.67-.01-.16-.02-.35-.04-.56-.18-.2-.38-.41-.58-.62v-.56c-.2-.21-.39-.42-.58-.62-.01-.21-.02-.4-.03-.55-.2-.24-.51-.46-.52-.68-.02-.44-.26-.67-.5-.97-.25-.32-.07-.74-.12-1.11-.01-.09-.04-.21-.1-.24-.49-.26-.39-.81-.62-1.2-.1-.16-.27-.28-.4-.41-.01-.19-.02-.38-.03-.58-.19-.2-.38-.41-.58-.62v-.55c-.2-.22-.4-.43-.58-.62-.01-.21-.03-.4-.04-.54-.2-.25-.37-.47-.54-.69.16-.57-.55-.76-.56-1.21-.01-.45-.41-.64-.51-.95-.14-.46-.22-.9-.65-1.17,0-.21-.02-.4-.03-.6-.39-.41-.78-.82-1.16-1.22-.02-.22.04-.5-.06-.58-.4-.32-.46-.77-.63-1.2-.13-.32-.49-.52-.5-.96,0-.22-.35-.42-.48-.66-.08-.15,0-.4-.08-.54-.14-.24-.35-.44-.56-.69v-.52c-.4-.42-.8-.84-1.17-1.23,0-.32.04-.62-.25-.8-.38-.23-.28-.66-.4-.98-.35-.35-.69-.69-1.04-1.04-.02-.19-.03-.37-.05-.59-.17-.19-.36-.4-.57-.63v-.54c-.2-.22-.39-.43-.6-.65v-.55c-.35-.35-.69-.69-1.04-1.04-.07-.26-.14-.52-.21-.79-.34-.34-.68-.68-1.03-1.03-.02-.19-.03-.37-.05-.6-.37-.39-.77-.81-1.16-1.22,0-.2-.02-.39-.03-.58-.4-.3-.66-.67-.61-1.19-.34-.34-.69-.69-1.03-1.03-.03-.18-.05-.37-.08-.55-.27-.52-.82-.79-1.16-1.35v-.51c-.47-.47-.93-.97-1.44-1.4-.34-.28-.23-.68-.39-.99-.35-.35-.69-.69-1.04-1.04-.01-.19-.02-.38-.04-.61-.58-.58-1.18-1.19-1.72-1.73-.04-.29-.06-.48-.09-.66-.34-.34-.68-.68-1.03-1.03-.02-.18-.04-.37-.05-.46-.8-.8-1.55-1.54-2.14-2.13-.13-.51-.2-.77-.27-1.03-.55-.55-1.09-1.09-1.65-1.65v-.52c-.98-.98-1.94-1.93-2.85-2.85-.02-.26-.04-.45-.05-.55-1.2-1.2-2.36-2.36-3.43-3.43-.03-.35-.05-.54-.06-.65-2.63-2.63-5.23-5.23-7.98-7.98-.11-.04-.48,0-.78-.31-1.41-1.46-2.86-2.88-4.3-4.32h-.57c-.95-.96-1.9-1.92-2.83-2.86-.23-.02-.42-.03-.59-.04-.75-.76-1.49-1.52-2.14-2.19-.32-.06-.5-.1-.68-.13-.08-.03-.19-.05-.25-.1-.55-.54-1.1-1.09-1.64-1.64-.19,0-.39,0-.58,0-.55-.55-1.09-1.09-1.64-1.64-.18-.03-.37-.03-.54-.11-.54-.24-.85-.75-1.28-1.12-.19,0-.38-.02-.6-.03-.59-.58-1.2-1.19-1.74-1.72-.3-.04-.48-.07-.66-.09-.34-.34-.68-.68-1.03-1.03-.52.04-.89-.22-1.2-.63h-.56c-.42-.4-.84-.8-1.23-1.17-.22-.02-.41-.03-.6-.05-.34-.34-.68-.68-1.04-1.04-.32-.13-.75-.02-.98-.4-.18-.29-.48-.26-.8-.26-.39-.38-.81-.77-1.23-1.17h-.54c-.23-.21-.44-.4-.63-.57-.22-.02-.4-.04-.59-.05-.34-.34-.68-.68-1.04-1.04-.33-.11-.75-.02-.98-.4-.18-.29-.48-.26-.79-.25-.2-.18-.41-.37-.63-.57h-.54c-.22-.2-.43-.39-.65-.6h-.57c-.28-.43-.68-.62-1.19-.63-.28-.44-.77-.45-1.18-.64-.32-.15-.53-.48-.97-.49-.22,0-.41-.36-.66-.49-.15-.08-.4.02-.55-.07-.24-.14-.44-.36-.67-.56h-.54c-.21-.2-.42-.39-.63-.58-.2,0-.39-.02-.58-.03-.3-.4-.67-.65-1.19-.61-.14-.14-.28-.28-.41-.41-.18-.04-.36-.12-.53-.1-.52.06-.94-.08-1.24-.52-.48-.05-.92-.17-1.18-.61-.21-.01-.4-.03-.61-.04-.2-.18-.41-.38-.62-.58h-1.14c-.21-.2-.42-.4-.62-.58-.21-.01-.4-.02-.58-.03-.14-.14-.27-.27-.46-.46-.4-.05-.86-.1-1.31-.15-.14-.14-.28-.28-.46-.46-.23-.02-.5-.03-.78-.06-.18-.02-.46,0-.52-.11-.29-.47-.82-.39-1.21-.61-.16-.09-.28-.27-.43-.42h-1.13c-.22-.2-.43-.4-.64-.6h-1.14c-.22-.2-.42-.39-.64-.6h-1.13c-.16-.16-.29-.29-.43-.43-.62-.3-1.31,0-1.95-.2q-.54-.49-1.59-.51c-.18-.15-.39-.32-.66-.55h-1.65c-.23-.2-.44-.39-.68-.6h-1.69c-.22-.2-.43-.4-.64-.6h-1.71c-.22-.2-.43-.4-.65-.6h-2.28c-.16-.16-.29-.29-.45-.45-.8-.28-1.67.05-2.5-.18-.14-.14-.27-.27-.42-.42-1.01-.25-2.07.1-3.07-.17-.16-.16-.3-.3-.46-.46h-4.01c-.23-.2-.44-.39-.67-.6h-10.39c-.22-.2-.43-.4-.63-.59h-30.73c-.22.2-.43.4-.65.6h-4.6c-.16.16-.29.29-.5.5-1.15.17-2.4-.03-3.58.1-.18.18-.32.32-.46.46-.56.17-1.13.05-1.7.09-.47.04-.95-.11-1.39.09-.15.15-.29.29-.46.46h-2.27c-.23.2-.44.39-.67.6h-2.27c-.22.2-.43.4-.64.6h-1.71c-.22.2-.43.4-.65.6h-1.7c-.16.16-.3.3-.43.43-.55.24-1.13.08-1.78.13-.16.12-.37.29-.67.53-.18.01-.46.07-.74.04-.46-.05-.68.28-.97.56h-1.11c-.22.2-.43.39-.67.6h-1.69c-.22.2-.43.4-.65.6h-1.12c-.23.21-.44.4-.66.6h-1.15c-.26.48-.73.56-1.19.64-.35.66-.98.47-1.59.5-.18.15-.39.33-.65.55h-1.08c-.22.2-.43.39-.66.6h-.54c-.22.2-.43.39-.65.6h-1.11c-.23.21-.44.4-.63.57-.22.02-.41.04-.59.06-.14.14-.27.27-.41.41-.18.04-.36.12-.53.11-.51-.05-.89.12-1.26.49-.23.23-.74.05-.97.43-.18.3-.51.18-.76.27-.25.1-.44.35-.67.56h-.54c-.21.2-.42.39-.63.58-.2,0-.39.02-.57.03-.29.23-.46.61-.93.56-.42-.04-.53.53-.92.56-.3.02-.58.05-.74.31-.24.39-.71.16-.99.41-.14.13-.27.27-.41.41-.19.01-.38.03-.59.04-.2.18-.4.37-.62.58h-.55c-.21.2-.42.4-.62.58-.21.01-.39.02-.58.03-.28.24-.47.6-.94.56-.42-.04-.53.54-.92.56-.3.02-.57.06-.74.32-.29.43-.91.14-1.21.6-.2.32-.53.56-.8.83h-.57c-.21.2-.42.39-.62.58-.21.01-.4.03-.6.04-.3.37-.64.69-1.13.56-.4.4-.74.74-1.08,1.08-.18.02-.37.04-.73.09-.25.36-.58.83-.79,1.14h-.85c-.22.2-.43.4-.62.58-.21.02-.4.03-.59.04-.34.34-.68.68-1.03,1.03-.18.03-.36.06-.54.09-.52.27-.84.76-1.28,1.15h-.55c-.62.6-1.24,1.2-1.82,1.76-.93-.12-1.11.75-1.64,1.1-.19.02-.37.04-.64.06-.56.56-1.17,1.16-1.73,1.72-.27.02-.52-.03-.63.07-.57.52-1.1,1.08-1.65,1.63-.19.02-.37.03-.63.05-.57.56-1.17,1.17-1.73,1.72-.27.03-.53-.02-.63.08-.77.73-1.51,1.49-2.27,2.25h-.58c-1.16,1.16-2.32,2.33-3.46,3.48h-.61c-1.91,1.91-3.82,3.83-5.75,5.73-.1.1-.36.05-.59.08-.18.17-.4.35-.6.55-6.02,6.01-12.03,12.03-18.06,18.04-.24.24-.25.49-.25.84-1.12,1.12-2.29,2.28-3.43,3.45-.1.1-.04.36-.06.62-.71.71-1.47,1.45-2.2,2.22-.11.11-.08.35-.14.61-.64.86-1.57,1.56-2.3,2.43-.01.2-.02.38-.03.57-.75.75-1.5,1.5-2.26,2.26-.01.19-.02.38-.03.61-.58.58-1.18,1.19-1.75,1.76.12.95-.73,1.13-1.09,1.66-.02.18-.04.37-.07.65-.55.55-1.16,1.16-1.72,1.73-.02.25-.03.44-.05.63-.36.53-1.21.72-1.12,1.57-.34.58-.9.97-1.34,1.47-.38.19-.71.15-.97-.2v-.6c.42-.28.64-.67.62-1.18.43-.28.46-.76.64-1.18.14-.32.48-.52.5-.97,0-.22.35-.42.49-.66.14-.23-.03-.56.21-.78.14-.13.27-.27.42-.42v-.56c.2-.22.39-.43.6-.65v-.57c.43-.28.63-.68.62-1.19.44-.28.45-.77.64-1.18.15-.32.48-.53.49-.97,0-.22.36-.42.49-.66.08-.15-.01-.4.07-.55.14-.24.36-.44.56-.67v-.54c.2-.22.39-.42.6-.64v-.54c.24-.3.62-.48.58-.95-.04-.42.57-.54.55-.92-.01-.45.31-.65.5-.96.19-.29.05-.75.43-.98.3-.18.24-.49.25-.79.18-.2.38-.41.58-.63v-.55c.2-.21.4-.42.58-.62.01-.2.02-.39.03-.55.2-.24.37-.46.55-.68-.16-.57.54-.77.56-1.21.02-.45.31-.65.52-.96.14-.21.12-.53.23-.77.08-.16.26-.28.4-.42.01-.19.02-.38.04-.59.18-.2.38-.41.58-.62v-.56c.2-.21.39-.42.58-.62.01-.21.02-.4.04-.59.34-.34.68-.68,1.03-1.03.07-.26.14-.52.2-.78.7-.31.29-1.32,1.03-1.61.01-.19.02-.38.03-.58.39-.41.78-.82,1.16-1.22.02-.22.03-.41.04-.55.2-.25.42-.45.54-.69.87-1.89.86-1.89,1.74-2.78v-.68c.16-.14.39-.31.6-.51.21-.19.39-.41.57-.6.02-.22.03-.4.05-.59.43-.28.59-.7.61-1.19.34-.34.69-.69,1.03-1.03.02-.19.04-.37.06-.6.37-.39.76-.8,1.16-1.22v-.54c.21-.23.4-.44.57-.63.02-.22.04-.4.05-.59.34-.34.68-.68,1.04-1.04-.04-.89.77-1.22,1.22-1.86v-.58c.46-.44.92-.94,1.44-1.37.34-.28.26-.67.39-.99.35-.35.69-.69,1.04-1.04.01-.19.03-.37.05-.63.57-.57,1.17-1.18,1.72-1.73.03-.28.05-.47.07-.65.35-.53,1.21-.72,1.09-1.66.57-.57,1.17-1.18,1.75-1.76.01-.23.02-.42.03-.61.55-.55,1.09-1.09,1.64-1.64.02-.18.05-.37.08-.66.74-.74,1.55-1.55,2.29-2.29.04-.3.06-.48.11-.81.87-.87,1.83-1.83,2.82-2.82,0-.12.02-.31.04-.54.93-.93,1.89-1.89,2.86-2.86v-.54c1.72-1.72,3.42-3.42,5.13-5.13.03-.18.05-.36.08-.55,1.76-1.9,8.22-8.39,10.81-10.85.19-.02.37-.04.56-.06,2.46-2.46,4.92-4.92,7.38-7.38.26-.07.52-.14.79-.21,1.5-1.5,3.01-3.01,4.51-4.51.19,0,.38-.02.54-.03.97-.97,1.92-1.93,2.82-2.84.28-.03.46-.05.56-.06.79-.79,1.54-1.54,2.15-2.15.48-.13.74-.19,1.01-.26.55-.55,1.09-1.09,1.65-1.65h.64c.43-.45.93-.92,1.36-1.44.28-.34.67-.27.99-.39.56-.56,1.1-1.1,1.66-1.66h.76c.3-.32.7-.74,1.1-1.17.16-.02.34-.04.53-.06.34-.34.68-.68,1.03-1.03.18-.03.37-.05.55-.08.5-.3.84-.77,1.27-1.16h.75c.28-.36.63-.81.89-1.14.38-.04.56-.07.75-.09.34-.34.68-.68,1.03-1.03.18-.02.37-.05.75-.1.26-.33.61-.78.88-1.13h.75c.21-.2.42-.39.62-.58.21-.01.4-.02.59-.04.34-.34.68-.68,1.05-1.05.44-.06.87-.17,1.19-.58.08-.1.35-.06.73-.1.26-.33.61-.78.89-1.14h.74c.22-.2.43-.4.62-.58.21-.01.4-.03.54-.04.25-.2.47-.37.69-.54.57.16.76-.55,1.21-.56.45,0,.66-.31.95-.53.21-.16.56.01.78-.21.13-.14.27-.27.41-.41.19,0,.38-.02.58-.03.2-.19.41-.39.63-.58h.58c.28-.41.66-.65,1.18-.62.29-.58,1.02-.4,1.4-.82.38-.42,1.11-.24,1.4-.82.5,0,.91-.2,1.19-.63h.57c.22-.2.43-.4.65-.6h.54c.23-.21.44-.4.66-.6h1.11c.3-.28.52-.54.96-.59.32-.03.6-.48.93-.52.45-.04.67-.3.95-.59h1.12c.22-.2.43-.39.66-.6h1.12c.22-.2.43-.39.65-.6h.53c.23-.21.44-.4.67-.6h1.11q.59-.54,1.63-.55c.17-.14.39-.31.67-.54h1.04c.23-.2.44-.38.7-.6h1.09c.22-.2.43-.39.65-.6h1.13c.21-.2.42-.39.64-.6h1.13c.15-.15.29-.29.42-.42.08-.05.15-.14.23-.14.57-.01,1.14,0,1.66,0,.2-.2.33-.33.54-.54.3-.02.67-.03,1.14-.06.15-.12.36-.29.62-.5.51-.13,1.09-.04,1.71-.06.18-.16.4-.34.65-.56h1.68c.22-.2.43-.4.65-.6h2.29c.21-.2.42-.4.64-.6h2.29c.15-.15.29-.29.5-.5.95-.18,2,.03,3.01-.11.15-.15.29-.29.45-.45,1-.26,2.06.09,3.07-.17.15-.15.29-.29.46-.46h4c.23-.2.44-.38.69-.6h6.32c.22-.2.43-.4.64-.6h17.96c.21.2.42.39.64.59h13.9c.15.15.29.29.43.43.53.25,1.11.1,1.67.12.68.03,1.35,0,2.03,0h1.65c.2.2.34.34.5.5.72.19,1.49.03,2.25.08.66.04,1.33-.09,1.98.1.14.14.28.28.45.45h2.84c.23.2.44.38.69.6h2.84c.22.2.43.4.64.6h2.3c.21.2.42.39.64.6h1.69c.24.21.46.4.68.6h1.68c.17.17.31.31.45.45.55.23,1.13-.02,1.91.22.03.02.24.2.52.42h1.06c.23.2.44.39.68.6h1.69c.22.2.43.4.64.6h1.14c.22.2.43.4.64.6h1.1c.25.21.46.4.65.56h1c.16.13.38.29.69.53.17.01.45.07.73.04.46-.05.68.26.97.56h1.11c.23.2.44.39.67.6h1.11c.22.2.43.4.64.6h.55c.22.2.43.4.65.6h1.15c.27.47.72.58,1.19.64.37.59.95.54,1.5.48.45.18.67.76,1.24.6.22.18.43.36.68.57h.52c.22.2.43.4.65.6h.54c.23.21.44.4.64.58.62-.22.79.44,1.23.57.56.03,1.18-.16,1.54.49.33.14.76.03.99.41.18.29.5.19.75.28.25.09.44.35.68.55h.53c.22.2.43.4.65.6h.55c.35.35.69.69,1.05,1.05.29.2.76,0,.98.4.22.4.7.18.99.41.21.17.34.49.68.45.48-.06.64.35.94.58h.56c.22.2.43.39.65.6h.54c.44.39.76.88,1.28,1.15.65-.19.84.79,1.5.58.15.11.31.21.44.34.28.27.55.54.83.82h.6c.32.33.66.68,1,1.02.06.06.15.1.23.14.18.02.46-.03.54.08.32.41.75.52,1.19.58.37.37.71.71,1.05,1.05.19.01.38.02.59.04.4.38.81.78,1.22,1.16.21.01.4.02.59.04.34.34.68.68,1.04,1.04.31.16.71.05.99.39.43.52.94.97,1.4,1.44h.6c.55.55,1.1,1.1,1.65,1.65.31.14.71.05.99.39.43.51.94.96,1.42,1.44h.58c.76.76,1.51,1.51,2.26,2.26.19.02.37.04.64.06.63.63,1.33,1.29,1.98,2,.29.32.67.27.99.39,1.1,1.1,2.2,2.2,3.29,3.29.26.07.52.14.65.17,5.96,5.96,11.83,11.83,17.74,17.74,0,.14.02.33.03.55,2.1,2.1,4.23,4.21,6.35,6.33v.61c1.14,1.14,2.3,2.3,3.48,3.48v.54c.96.96,1.92,1.92,2.89,2.89v.63c.46.44.92.94,1.44,1.37.34.28.26.67.45,1.12.68.65,1.44,1.39,2.18,2.11.01.22.02.41.03.6.55.55,1.09,1.09,1.64,1.64.02.18.05.37.07.55.27.52.82.79,1.16,1.34v.51c.47.47.93.98,1.44,1.41.34.28.23.69.39.99.35.35.69.69,1.04,1.04.01.19.02.38.03.58.38.4.78.82,1.16,1.22.01.21.03.4.04.59.34.34.68.68,1.03,1.03.03.18.03.38.1.54.25.53.75.85,1.13,1.28,0,.19.02.38.03.72.14.11.37.28.58.48.21.19.39.41.57.6.02.21.03.4.04.59.34.34.68.68,1.04,1.04.14.32.04.72.39.99.24.19.2.24.3.94.34.25.81.59,1.14.83v.8c.2.23.4.44.57.63.02.22.03.4.05.59.34.34.68.68,1.04,1.04.12.32.04.72.39.99.24.19.2.24.27.79.37.39.76.8,1.16,1.23v.52c.21.24.46.43.55.68.09.25,0,.55.27.76.14.11.29.28.31.44.03.29.07.54.3.75.13.12.22.29.29.46.07.17.09.35.13.53.34.34.68.68,1.03,1.03v.56c.2.22.39.43.6.65v.54c.24.3.62.47.58.95-.04.42.57.54.55.92-.01.45.3.65.5.96.19.29.05.75.43.98.3.18.24.49.25.79.18.2.37.41.58.63v.55c.2.21.4.42.58.62.01.2.02.39.03.55.2.24.38.46.55.68-.16.57.53.77.56,1.21.02.45.39.64.5.96.16.44.21.91.64,1.17.01.21.03.4.04.61.18.2.38.41.58.62v.56c.2.21.39.42.58.62.01.21.02.4.03.56.2.23.38.44.55.63v.97c.17.26.38.56.58.86-.16.57.59.73.57,1.21-.02.47.33.65.56.95,0,.17.02.36.03.57.19.2.38.41.58.62v1.13c.2.22.4.43.58.62.01.21.03.4.04.61.44.26.45.75.64,1.17.44.93.49.91.48,1.6.15.18.33.39.52.63-.04.49.22.87.63,1.17v1.14c.2.22.4.43.6.64v.55c.2.22.4.43.6.65v1.12c.16.16.3.3.43.43.26.34.04.74.23,1.28.09.13.42.43.45.75.04.44.3.67.58.97v1.11c.2.22.39.44.6.67v1.11c.2.22.4.43.6.65v1.12c.21.23.4.44.6.66v1.12c.16.16.3.3.43.43.25.35.04.75.23,1.33.02.03.2.25.43.54v1.03c.2.23.38.45.6.71v1.08c.2.22.39.43.6.66v1.12c.2.22.4.43.6.65v1.12c.21.23.4.44.6.66v1.11c.16.16.3.3.44.44.28.54-.03,1.13.31,2.01-.06-.08.11.14.34.43v1.04c.2.23.38.45.6.7v1.67c.2.22.39.43.6.65v1.13c.2.22.39.43.6.65v1.71c.15.15.29.29.42.42.35.62,0,1.31.2,1.95.14.14.27.27.48.48.02.57.05,1.22.07,1.81.2.2.33.33.47.47.18.56-.02,1.14.15,1.84.08.09.26.31.48.56v1.67c.2.22.39.43.6.65v2.29c.2.21.39.42.6.64v1.71c.15.15.29.29.46.46.29.78-.05,1.66.17,2.49.14.14.27.27.41.41.28.82-.06,1.7.2,2.53.14.14.27.27.45.45v2.26c.2.23.38.44.6.69v2.84c.2.22.4.43.6.64v2.88c.2.21.4.42.6.64v2.87c.15.15.29.29.47.47.26,1.17-.04,2.42.15,3.63.15.15.28.28.45.45.18.73.03,1.49.08,2.25.04.66-.1,1.33.1,1.98.14.14.28.28.45.45v4.58c.2.23.38.44.6.68v5.17c.2.22.4.43.6.64v6.94Z"/>
  <path class="st0" d="M267.06,317.82v.86c-.2.21-.39.42-.6.64v1.12c-.26.3-.64.49-.57.96.01.08-.02.22-.07.25-.57.3-.37,1.04-.82,1.41-.07.06-.14.14-.24.24v1.1c-.2.23-.39.44-.58.66,0,.17-.02.36-.03.56-.19.2-.38.41-.58.62v.55c-.2.22-.4.43-.6.65v1.1c-.22.25-.4.46-.56.65v1c-.13.16-.34.35-.48.59-.09.15-.03.38-.11.53-.13.24-.32.45-.54.75v1.04c-.2.23-.39.44-.6.67v.53c-.21.22-.4.43-.6.65v1.13c-.2.22-.4.43-.6.66v1.12l-.44.44c-.23.34-.07.73-.13,1.13-.18.28-.51.58-.54.9-.04.45-.3.67-.59.96v1.11c-.2.22-.39.43-.6.66v1.12c-.2.22-.4.43-.6.65v1.12c-.21.23-.4.44-.6.66v1.11l-.44.44c-.28.54.03,1.13-.32,2.02.07-.08-.11.13-.34.42-.01.19-.06.47-.03.75.05.46-.29.67-.57.96v1.12c-.2.22-.39.43-.6.66v1.13c-.2.22-.39.43-.6.65v1.69c-.21.23-.4.45-.6.67v1.11c-.17.17-.3.3-.44.44-.21.55-.07,1.13-.12,1.77-.13.17-.31.38-.52.64-.16.5.03,1.08-.13,1.78-.09.1-.27.32-.49.57v1.68c-.2.22-.4.43-.6.65v1.13c-.2.21-.4.42-.6.64v2.27c-.21.24-.4.45-.6.68v1.68c-.17.17-.31.31-.44.44-.2.56-.07,1.13-.11,1.77-.14.17-.31.38-.54.66v2.22c-.2.23-.38.44-.6.69v1.68c-.2.22-.4.43-.6.64v2.3c-.2.21-.39.42-.6.64v2.29c-.15.15-.29.29-.44.44-.25.54-.09,1.11-.12,1.68-.02.47,0,.95,0,1.35l-.48.48c-.18.55-.05,1.13-.1,1.69-.04.47.1.95-.09,1.39l-.46.46v2.84c-.2.23-.39.44-.6.68v2.85c-.2.22-.4.43-.6.64v4.03c-.2.22-.4.43-.6.65v4.02l-.44.44c-.24.54-.09,1.12-.12,1.68-.02.48,0,.97,0,1.45-.02.57.07,1.14-.07,1.71-.14.14-.28.28-.42.42-.18.65-.07,1.32-.09,1.99-.02.68,0,1.35,0,2.03v1.87c-.25.25-.38.38-.55.55v7.49c-.2.23-.39.44-.6.67v15.64c.18.19.37.4.57.62v11.57c.2.22.4.43.6.65v6.92c.16.16.3.3.44.44.23.54.09,1.12.11,1.68.02.68,0,1.35,0,2.03.01.57-.07,1.14.07,1.7.14.14.28.28.42.42.16.56.06,1.13.08,1.7.02.48,0,.97,0,1.45v1.58c.25.25.39.39.55.55v4.01c.2.22.39.43.6.67v3.43c.2.22.4.43.6.65v2.86c.21.23.4.44.6.66v2.85c.16.16.3.3.47.47.27.99-.08,2.05.17,3.07.14.14.28.28.42.42.18.75.02,1.52.12,2.37.12.14.3.36.52.62v2.25c.2.22.39.43.6.66v2.28c.2.22.39.43.6.65v2.27c.21.23.4.44.6.67v1.69c.16.16.3.3.51.51.02.57.05,1.22.07,1.81.19.19.33.33.47.47.15.56.05,1.14.08,1.76.16.18.34.4.56.65v1.67c.2.22.39.43.6.65v1.71c.2.21.39.42.6.64v1.69c.21.24.4.45.6.67v1.68c.17.17.3.3.51.51.01.3.03.67.06,1.14.12.15.3.37.5.62.12.52.04,1.09.06,1.71.16.19.35.4.56.64v1.1c.2.22.4.43.6.64v1.14c.2.21.4.42.6.64v1.69c.21.24.4.45.6.68v1.1c.17.17.31.31.51.51.01.3.03.68.05,1.14.13.15.3.37.53.65v1.06c.2.23.39.44.6.68v1.11c.2.22.4.43.6.64v1.14c.2.22.4.43.6.64v1.15c.46.27.47.76.66,1.18.44.93.49.91.48,1.6.15.18.33.39.55.66v1.07c.2.23.39.44.6.67v1.11c.2.22.4.43.6.64v.55c.2.22.4.43.6.65v1.12c.16.16.3.3.44.44.23.34.07.73.13,1.14.18.27.51.57.54.89.04.45.3.67.58.97v1.11c.2.22.39.43.6.67v.53c.2.22.4.43.6.65v1.16c.42.28.64.67.62,1.18.71.3.34,1.29,1.03,1.61.04.37.08.75.13,1.28.08.28.75.46.53,1.07.18.2.38.41.58.64v.54c.2.22.39.43.6.65v.57c.43.28.62.68.63,1.19.7.3.34,1.29,1.03,1.61.04.38.07.75.12,1.25.1.31.76.49.53,1.11.19.2.38.41.58.64v.55c.2.21.39.42.58.63,0,.2.02.39.03.58.34.34.68.68,1.03,1.03.07.26.13.52.2.78.71.3.29,1.32,1.03,1.61.01.19.03.38.04.59.18.2.38.41.58.62v.56c.2.21.4.42.58.62.01.21.02.4.03.55.2.24.51.46.52.68.02.44.26.67.49.97.15.2.15.51.22.77.34.34.69.69,1.03,1.03.01.19.02.38.03.58.19.2.38.41.58.62v.56c.2.22.4.43.58.62.01.21.03.4.04.59.34.34.68.68,1.05,1.05.05.44.18.87.58,1.19.1.08.05.35.09.72.35.25.83.58,1.14.81v.84c.35.35.69.69,1.06,1.06.11.4.15.85.57,1.18.17.13.15.5.22.76.34.34.68.68,1.04,1.04v.55c.4.42.8.84,1.17,1.23.02.23.04.41.05.6.34.34.68.68,1.03,1.03.03.18.06.36.08.55.29.51.77.84,1.15,1.27v.56c.4.42.8.83,1.16,1.21.02.24.04.42.06.61.34.34.68.68,1.03,1.03.03.18.05.37.08.55.26.53.82.79,1.16,1.36v.51c.47.46.95.92,1.43,1.4.13.13.24.29.31.45.07.17.07.36.1.54.55.55,1.09,1.09,1.64,1.64v.59c.47.47.93.98,1.44,1.41.34.29.23.69.52,1.23.58.57,1.34,1.31,2.1,2.06.01.18.02.36.04.55.75.75,1.5,1.5,2.26,2.26,0,.19.02.38.02.54.97.97,1.93,1.92,2.84,2.83.03.27.04.45.07.73,1.72,1.72,3.49,3.49,5.2,5.2.03.27.05.46.07.65,4.31,4.31,8.62,8.62,12.92,12.92.18.03.37.05.55.08.08.04.17.07.23.13.48.47.96.95,1.44,1.43,1.03,1.03,2.05,2.05,3.07,3.08.2,0,.39,0,.58,0,.75.75,1.5,1.5,2.26,2.26.18.02.37.04.58.07.9.68,1.56,1.65,2.46,2.31.22.03.4.06.59.08.55.55,1.09,1.09,1.65,1.65h.55c.63.6,1.24,1.2,1.8,1.74.28.04.46.07.64.1.55.55,1.09,1.09,1.65,1.65h.56c.42.4.84.8,1.22,1.16.23.02.42.04.6.06.34.34.68.68,1.03,1.03.18.03.36.05.55.08.5.29.84.77,1.27,1.16h.56c.21.2.42.39.64.6h.55c.35.35.7.7,1.04,1.04.26.07.57.07.77.22.3.23.53.55.97.47.43.38.85.76,1.31,1.16h.52c.21.2.42.4.62.58.21.01.4.02.55.03.24.2.46.37.68.55.57-.16.77.54,1.21.56.45.02.64.39.96.5.44.16.91.21,1.17.64.21.01.4.02.6.04.2.18.41.38.62.58h.56c.22.2.42.4.62.58.21.01.4.03.61.04.26.44.7.57,1.18.61.37.59.95.56,1.56.48.21.18.43.35.66.55.49-.03.87.21,1.17.63h1.14c.22.2.43.4.64.6h1.13c.22.2.43.4.65.6h1.09c.25.22.46.4.65.56h1c.17.13.38.3.65.51.49.15,1.07.04,1.7.07.18.15.39.33.66.55h1.65c.22.2.44.39.67.6h2.27c.22.2.43.4.65.6h4.03c.23.2.44.4.6.55h6.97l.44-.44c.54-.22,1.12-.07,1.68-.11.47-.04.95.08,1.41-.08l.42-.42c.56-.19,1.14,0,1.85-.17.09-.07.3-.25.56-.47h1.66c.22-.2.43-.39.66-.6h1.12c.22-.2.43-.4.65-.6h.54c.23-.21.44-.4.66-.6h1.11c.16-.16.28-.35.44-.43.41-.18.93-.16,1.19-.63.47-.06.91-.19,1.2-.62.52.02.9-.21,1.18-.62h.58c.21-.2.42-.39.64-.6h.55c.15-.15.3-.28.42-.42.37-.44.79-.79,1.4-.82.26-.48.83-.38,1.18-.63.39-.28.69-.67,1.04-1.01h.6c.53-.54,1.07-1.1,1.63-1.63.11-.11.35-.08.6-.13.87-.65,1.56-1.58,2.44-2.31.19-.01.45.05.55-.05,1.04-1.01,2.07-2.03,3.08-3.08.1-.11.06-.36.1-.6.7-.84,1.58-1.58,2.3-2.38.03-.26-.02-.51.08-.62.52-.57,1.08-1.1,1.63-1.65.01-.19.02-.38.04-.59.18-.2.38-.41.58-.62v-.56c.2-.21.4-.42.58-.62.01-.21.02-.4.03-.55.2-.24.37-.46.55-.68-.16-.57.54-.77.56-1.21.02-.45.4-.64.51-.96.15-.45.21-.9.66-1.18v-1.15c.2-.22.4-.43.6-.64v-1.71c.2-.22.4-.43.6-.65v-1.7l.5-.5c.15-1.35,0-2.78.08-4.14.19-.19.33-.33.47-.47.03-.08.09-.17.09-.25,0-1.06,0-2.13,0-3.19,0-.08-.07-.16-.1-.24-.14-.14-.27-.27-.44-.44v-4.01c-.2-.23-.39-.44-.6-.67v-2.27c-.2-.22-.4-.43-.6-.64v-1.13c-.2-.22-.4-.43-.6-.65v-1.09c-.22-.25-.4-.47-.56-.65v-.94c-.19-.29-.52-.58-.55-.91-.04-.45-.3-.67-.58-.97v-1.11c-.2-.22-.39-.43-.6-.67v-.54c-.4-.42-.8-.84-1.17-1.23-.02-.23-.04-.41-.05-.6-.35-.54-1.21-.71-1.11-1.57-.29-.51-.77-.84-1.15-1.27v-.56c-.2-.22-.39-.43-.6-.65v-.55c-.35-.35-.69-.69-1.04-1.04-.07-.26-.14-.52-.21-.79-.34-.34-.68-.68-1.03-1.03-.01-.19-.03-.37-.05-.6-.38-.39-.77-.81-1.16-1.22,0-.2-.02-.39-.03-.58-.27-.27-.52-.58-.83-.81-.35-.27-.28-.66-.36-.95-.39-.39-.73-.73-1.07-1.07-.01-.19-.02-.38-.04-.59-.38-.4-.77-.81-1.14-1.2v-7.55c.15-.15.29-.29.43-.43.33-.62-.01-1.31.21-1.95.27-.26.57-.49.51-.94-.07-.5,0-.97.54-1.19v-1.18c.2-.23.39-.44.58-.66,0-.17.02-.36.03-.56.19-.2.38-.41.58-.62v-.55c.2-.22.4-.43.58-.62.01-.21.03-.4.04-.59.34-.34.68-.68,1.04-1.04.14-.31.07-.69.39-.99.99-.93,1.93-1.9,2.88-2.86h.57c.21-.2.42-.4.62-.58.21-.01.39-.02.56-.03.21-.18.41-.35.61-.52.17.17.28.37.45.43.43.16.85.23,1.2.62.85.93,1.76,1.79,2.66,2.69v.63c.46.44.95.91,1.43,1.38.13.13.25.28.31.45.07.17.07.36.1.54.34.34.68.68,1.03,1.03.01.19.03.37.05.63,1.19,1.19,2.42,2.42,3.65,3.64.06.06.16.08.24.12.18.03.36.06.55.08.34.34.68.68,1.03,1.03.19.02.37.03.59.05.19.17.4.36.63.57h.54c.22.2.43.4.65.6h.54c.23.21.44.4.66.6h1.11l.5.5c.77.15,1.63-.02,2.39.06.21.21.35.35.49.49.09.03.17.08.26.08,3,0,6,0,9.04,0,.18-.16.4-.34.65-.56h3.41c.22-.2.43-.39.65-.6h3.45c.22-.2.42-.39.64-.6h1.11c.24-.21.45-.4.67-.6h1.04c.3-.22.52-.39.75-.55.64.17.85-.77,1.5-.58.43-.38.85-.75,1.31-1.16h.54c2.52-2.53,5.05-5.06,7.59-7.58.24-.24.24-.49.24-.83.58-.58,1.18-1.19,1.73-1.74.03-.28.05-.47.07-.65q1.02-1.02,1.12-1.69c.54-.54,1.14-1.15,1.72-1.73.01-.24.02-.42.04-.61.55-.55,1.11-1.08,1.63-1.65.1-.11.06-.36.07-.44,1.01-1.01,1.96-1.96,2.67-2.67.3-.66.22-1.04.55-1.34.78-.72,1.51-1.49,2.27-2.24q.32.34.33,1.81c-.22.59-1.08.97-.47,1.72-.26.31-.44.52-.66.78v1.08c-.2.22-.39.43-.6.67v1.69c-.2.22-.4.43-.6.65v1.7c-.21.23-.4.44-.6.66v1.11l-.44.44c-.17.34-.18,1.95-.03,5.43.21.21.4.42.62.61.28.26.57.5.85.75.65-.19.86.74,1.5.58.23.16.45.33.74.54,0,0,.09.04.18.04.29,0,.58,0,.91,0,.19.17.4.36.64.57h3.46c.19-.17.4-.37.61-.57h1.13c.22-.2.43-.4.62-.57.21-.02.4-.03.59-.04.28-.43.7-.6,1.19-.61.34-.34.69-.69,1.03-1.03.19-.02.37-.04.47-.05,2.3-2.3,4.54-4.54,6.85-6.85,0-.07.02-.26.03-.45.34-.34.68-.68,1.03-1.03.03-.18.03-.38.1-.54.25-.53.75-.85,1.13-1.27,0-.19.02-.38.03-.58.19-.2.39-.41.58-.63v-.55c.2-.22.4-.43.6-.65v-1.07c.22-.28.52-.5.53-.72.01-.44.28-.67.5-.97.15-.2.12-.53.23-.77.08-.16.26-.28.43-.44v-1.11c.2-.22.39-.43.6-.67v-1.11c.2-.22.4-.43.6-.65v-1.12c.21-.23.4-.44.6-.66v-1.11l.44-.44c.22-.34.07-.74.13-1.21.12-.15.29-.36.49-.62.14-.5.04-1.08.07-1.7.15-.18.33-.39.55-.65v-2.25c.2-.22.39-.43.6-.66v-1.71c.2-.22.39-.43.6-.65v-.42c.74-.77,1.41-1.46,2.07-2.15.29,0,.57.04.78-.24.11-.14.29-.23.44-.34.29,0,.58,0,.87,0,.15.09.33.16.46.29.76.74,1.51,1.5,2.3,2.29v3.5c-.13.15-.31.36-.53.61v2.84c-.2.22-.4.43-.6.64v2.3c-.2.21-.4.42-.6.64v1.69c-.21.24-.4.45-.6.68v1.1c-.17.17-.31.31-.44.44-.19.56-.06,1.13-.11,1.77-.14.17-.32.39-.54.66v1.06c-.2.23-.39.44-.6.68v1.11c-.2.22-.4.43-.6.64v1.13c-.2.22-.4.43-.6.65v1.68c-.21.25-.4.46-.6.69v1.11c-.69.37-.52.99-.55,1.61-.15.17-.45.36-.49.6-.09.48-.21.91-.65,1.18v1.15c-.2.22-.4.43-.6.64v1.13c-.2.22-.4.43-.58.63,0,.31.03.59-.24.8-.14.11-.23.29-.34.44-.03.56.17,1.18-.49,1.54-.15.33-.03.76-.41.99-.29.18-.19.5-.28.75-.09.25-.34.44-.55.69v.52c-.2.22-.4.43-.6.65v.58c-.42.28-.64.67-.62,1.18-.42.29-.57.71-.59,1.17l-1.05,1.05c-.02.19-.03.37-.06.64-.56.56-1.17,1.17-1.74,1.74.01.36-.02.61-.25.84-2.34,2.31-4.66,4.64-6.99,6.98h-.56c-.42.4-.84.8-1.22,1.16-.23.02-.42.04-.6.06-.34.34-.68.68-1.04,1.04-.33.11-.72.04-.99.39-.23.31-.54.55-.82.83h-.56c-.21.2-.42.39-.64.6h-.57c-.28.44-.69.62-1.19.63-.31.7-1.29.33-1.61,1.03-.38.03-.75.07-1.21.11-.15.13-.36.31-.61.53h-1.1c-.22.2-.43.4-.65.6h-1.71c-.21.2-.42.4-.64.6h-3.45c-.15.15-.29.29-.43.43-.14.14-.31.15-.52.15-.67-.02-1.34,0-1.94,0-.2-.2-.34-.34-.54-.54-1.16-.13-2.4.03-3.57-.09l-.5-.5h-1.1c-.23-.2-.44-.38-.68-.6h-1.79c-.19.23-.43.53-.76.95,0,0-.03.18-.07.46-.54.56-1.13,1.18-1.74,1.8v.53c-.5.5-.98.98-1.46,1.46h-.56c-.55.55-1.09,1.11-1.65,1.63-.11.1-.35.07-.53.1-.52.27-.84.76-1.28,1.15h-.55c-.22.2-.43.4-.65.6h-.55c-.23.2-.44.4-.66.6h-1.15c-.26.48-.72.57-1.19.64-.35.66-.98.47-1.59.5-.18.15-.39.33-.65.55h-1.66c-.22.2-.43.39-.66.6h-2.28c-.22.2-.43.4-.65.6h-9.25c-.2.13-.29.28-.29.48,0,3.38,0,6.77,0,10.19-.17.19-.35.4-.56.64v4.01c-.2.22-.4.43-.6.64v2.3c-.2.22-.4.43-.6.64v1.68c-.21.25-.4.46-.6.69v1.11c-.69.37-.52.99-.55,1.61-.15.18-.32.39-.55.66v1.07c-.2.23-.39.44-.6.67v1.11c-.2.22-.4.43-.6.64v1.13c-.2.22-.4.43-.58.63,0,.31.03.59-.24.8-.14.11-.23.29-.34.44-.03.56.17,1.18-.49,1.54-.15.33-.03.76-.41.99-.29.18-.19.5-.28.75-.09.25-.34.44-.55.69v.52c-.2.22-.4.43-.6.65v.55c-.23.3-.63.47-.58.94.04.43-.56.54-.55.92,0,.45-.29.66-.5.97-.2.28-.04.75-.42.98-.19.11-.28.27-.25.47.07.47-.34.64-.58.94v.55c-.4.42-.8.83-1.17,1.22,0,.33.03.62-.26.8-.37.24-.3.65-.36.94-.39.39-.73.73-1.07,1.07-.01.19-.03.37-.05.63-.57.57-1.17,1.18-1.72,1.73-.03.28-.05.47-.07.65-.35.53-1.21.72-1.1,1.58-.3.49-.77.84-1.16,1.26-.33.35-.67.7-1.03,1.02-.43.38-.77.8-.82,1.41l-1.03,1.03c-.41.41-.82.82-1.23,1.23-1.84,1.84-3.68,3.68-5.46,5.46-.29.03-.54-.01-.65.09-.97.94-1.92,1.9-2.84,2.82-.25.02-.44.03-.63.04-.55.55-1.09,1.09-1.64,1.64-.18.02-.37.04-.74.08-.25.35-.58.83-.8,1.14h-.85l-1.14,1.14c-.31.04-.49.07-.68.09-.34.34-.68.68-1.03,1.03-.53-.05-.89.22-1.2.63h-.55c-.22.2-.43.4-.65.6h-.58c-.28.42-.67.64-1.18.62-.28.43-.76.47-1.18.64-.32.13-.52.49-.97.5-.23,0-.45.31-.73.53h-1.06c-.22.2-.43.39-.66.6h-1.12c-.22.2-.43.4-.65.6h-1.12c-.23.21-.44.4-.66.6h-1.11c-.16.16-.3.3-.44.44-.55.22-1.13.07-1.78.12-.16.13-.38.3-.64.51-.02,0-.11.06-.2.06-.87,0-1.74,0-2.66,0-.18.16-.4.34-.65.56h-5.15c-.22.2-.43.39-.65.6h-5.78c-.2-.19-.41-.38-.63-.59h-5.77c-.15-.15-.29-.29-.48-.48-.96-.22-2.02.03-3.04-.14-.14-.14-.27-.27-.41-.41-.82-.29-1.7.05-2.53-.21-.14-.14-.27-.27-.43-.43-.74-.14-1.51-.02-2.32-.06-.18-.16-.39-.34-.64-.56h-1.68c-.22-.2-.43-.4-.65-.6h-1.13c-.21-.2-.42-.4-.64-.6h-1.69c-.24-.21-.45-.4-.68-.6h-1.11c-.29-.3-.52-.57-.97-.58-.23,0-.45-.29-.77-.52h-1.02c-.23-.2-.44-.38-.67-.58-.16-.01-.35-.02-.56-.03-.2-.18-.41-.38-.62-.58h-.56c-.21-.2-.42-.39-.62-.58-.21-.01-.4-.02-.54-.03-.25-.2-.47-.37-.69-.55-.57.16-.77-.54-1.21-.56-.45-.01-.64-.4-.96-.51-.45-.15-.9-.22-1.17-.65-.21-.01-.4-.02-.6-.03-.2-.19-.41-.38-.62-.58h-.55c-.22-.2-.43-.4-.62-.58-.21-.02-.49.04-.57-.06-.32-.39-.76-.47-1.2-.63-.32-.12-.51-.49-.96-.5-.22,0-.42-.34-.66-.49-.23-.14-.56.02-.78-.21-.13-.14-.27-.27-.42-.42h-.55c-.42-.4-.84-.8-1.23-1.17-.22-.02-.41-.03-.6-.05-.28-.44-.7-.59-1.19-.61-.34-.34-.69-.69-1.03-1.03-.19-.02-.37-.03-.59-.06-.19-.17-.4-.36-.63-.57h-.54c-.42-.4-.84-.79-1.23-1.17-.32,0-.61.03-.8-.26-.24-.37-.64-.31-.94-.36-.39-.39-.73-.73-1.07-1.07-.19-.02-.37-.03-.6-.05-.39-.37-.81-.77-1.23-1.17h-.55c-.56-.56-1.11-1.11-1.65-1.65-.18-.03-.37-.05-.55-.08-.5-.3-.84-.77-1.27-1.16h-.6c-.53-.54-1.06-1.1-1.63-1.63-.11-.11-.35-.08-.53-.12-.08-.03-.19-.05-.25-.1-.55-.54-1.1-1.09-1.64-1.64-.2,0-.39,0-.58,0-.75-.75-1.5-1.5-2.26-2.26-.18-.02-.37-.04-.58-.07-.9-.68-1.56-1.65-2.46-2.31-.22-.03-.4-.06-.59-.08-1.09-1.09-2.19-2.19-3.28-3.28-.26-.07-.52-.14-.57-.15-5.05-5.05-9.97-9.97-14.94-14.94,0-.1-.03-.28-.05-.47-.75-.75-1.5-1.5-2.26-2.26v-.58c-.75-.74-1.51-1.49-2.25-2.22-.03-.21-.05-.39-.09-.69-.54-.54-1.14-1.15-1.72-1.73-.01-.24-.02-.42-.04-.61-.55-.55-1.09-1.09-1.64-1.64-.02-.18-.04-.37-.08-.66-.55-.55-1.15-1.15-1.72-1.73-.02-.25-.03-.43-.04-.62-.34-.34-.68-.68-1.04-1.04-.14-.31-.05-.71-.39-.99-.52-.43-.98-.93-1.44-1.38v-.62c-.28-.28-.53-.58-.83-.82-.34-.27-.33-.64-.36-.95-.39-.39-.73-.73-1.07-1.07-.02-.19-.04-.37-.06-.6-.37-.39-.76-.8-1.16-1.22v-.56c-.35-.35-.69-.69-1.06-1.06-.1-.41-.14-.87-.57-1.18-.1-.07-.07-.35-.1-.53-.29-.51-.77-.84-1.15-1.27v-.75c-.33-.3-.74-.69-1.17-1.09,0-.28.02-.57-.26-.75-.37-.24-.3-.65-.36-.95-.39-.39-.73-.73-1.07-1.07-.01-.19-.03-.38-.04-.59-.18-.19-.37-.4-.57-.62v-.6c-.12-.11-.27-.24-.4-.38-.26-.28-.51-.56-.76-.84.16-.57-.58-.79-.55-1.21.05-.65-.8-.85-.61-1.5-.38-.43-.76-.85-1.16-1.31v-.52c-.2-.21-.4-.42-.58-.62-.01-.21-.02-.4-.03-.55-.2-.24-.37-.46-.55-.68.16-.57-.54-.77-.56-1.21-.02-.45-.4-.64-.51-.96-.15-.45-.21-.9-.65-1.17-.01-.21-.02-.4-.03-.6-.19-.2-.38-.41-.58-.62v-.55c-.2-.22-.4-.43-.58-.62-.01-.21-.03-.4-.04-.54-.2-.25-.37-.47-.54-.69.16-.57-.55-.76-.56-1.21-.01-.45-.41-.64-.51-.95-.14-.46-.22-.9-.65-1.17,0-.21-.02-.4-.03-.59-.19-.21-.39-.41-.58-.63v-.58c-.41-.28-.65-.67-.62-1.18-.43-.28-.56-.72-.62-1.2-.47-.26-.45-.78-.63-1.19-.07-.16-.26-.28-.43-.44v-1.11c-.2-.22-.39-.43-.6-.66v-.53c-.2-.22-.4-.43-.6-.65v-.54c-.21-.23-.4-.44-.6-.66v-1.14c-.48-.26-.56-.73-.64-1.19-.6-.37-.52-.96-.48-1.47-.13-.5-.86-.65-.55-1.25-.22-.25-.41-.46-.62-.68v-1.13c-.2-.22-.39-.43-.6-.65v-.53c-.21-.23-.4-.44-.6-.67v-1.11c-.17-.17-.3-.3-.47-.47-.05-.42-.1-.87-.14-1.3-.16-.16-.3-.3-.47-.47v-.97c-.18-.54-.84-.72-.61-1.34-.19-.2-.38-.41-.58-.63v-1.13c-.2-.21-.39-.42-.6-.64v-1.13c-.15-.15-.29-.29-.48-.48-.04-.39-.1-.85-.15-1.31-.14-.14-.27-.27-.44-.44-.05-.42-.1-.88-.14-1.3-.17-.17-.3-.3-.48-.48v-1.1c-.2-.23-.38-.44-.6-.69v-1.1c-.2-.22-.4-.43-.6-.64v-1.14c-.2-.21-.4-.42-.6-.64v-1.11c-.21-.24-.4-.45-.6-.68v-1.68c-.17-.17-.31-.31-.51-.51-.01-.3-.03-.68-.05-1.14-.13-.16-.3-.37-.53-.64v-1.06c-.2-.23-.39-.44-.6-.68v-1.69c-.2-.22-.4-.43-.6-.64v-1.13c-.2-.22-.4-.43-.6-.65v-1.68c-.21-.25-.4-.46-.56-.65,0-.53,0-1.01,0-1.49,0-.09-.05-.17-.07-.26-.14-.14-.27-.27-.41-.41-.22-.55.02-1.14-.2-1.89-.04-.05-.22-.26-.44-.53v-1.65c-.2-.23-.39-.44-.6-.67v-1.69c-.2-.22-.4-.43-.6-.64v-2.29c-.2-.22-.4-.43-.6-.65v-1.7c-.16-.16-.3-.3-.45-.45-.28-.8.04-1.68-.19-2.51-.14-.14-.27-.27-.43-.43-.16-.73-.02-1.5-.07-2.32-.15-.17-.33-.39-.55-.65v-2.24c-.2-.22-.39-.43-.6-.67v-2.85c-.2-.22-.4-.43-.6-.65v-2.86c-.21-.23-.4-.44-.6-.66v-2.86c-.16-.16-.3-.3-.44-.44-.23-.64-.07-1.31-.11-1.97-.04-.57.07-1.14-.08-1.7-.14-.14-.28-.28-.41-.41-.03-.09-.08-.17-.08-.26,0-1.06,0-2.13,0-3.24-.16-.18-.34-.4-.56-.65v-4.57c-.2-.22-.39-.43-.6-.66v-4.6c-.2-.22-.39-.43-.6-.65v-6.35c-.15-.15-.28-.28-.42-.42-.05-.08-.12-.15-.14-.23-.02-.09,0-.19,0-.29v-8.91c-.19-.19-.33-.33-.47-.47-.04-.08-.11-.16-.11-.24,0-7.74,0-15.47,0-23.21,0-.18.06-.36.09-.54.14-.14.27-.27.41-.41.03-.09.08-.17.08-.26,0-2.22,0-4.45,0-6.72.16-.19.34-.4.56-.65v-5.15c.2-.22.39-.43.6-.65v-4.61c.2-.21.39-.42.6-.64v-4.03c.15-.15.29-.29.44-.44.27-.63.09-1.3.13-1.96.03-.57,0-1.14,0-1.65.2-.2.33-.33.48-.48.2-.55.06-1.13.1-1.69.04-.47-.09-.95.08-1.4.15-.15.29-.28.49-.49,0-.88,0-1.84,0-2.84.16-.19.34-.4.56-.65v-2.84c.2-.22.4-.43.6-.65v-2.3c.2-.21.4-.42.6-.64v-2.29c.15-.15.29-.29.47-.47.27-.78-.04-1.65.14-2.46.16-.16.3-.3.43-.43.27-.83-.06-1.7.21-2.53.14-.14.27-.27.44-.44v-1.68c.2-.23.39-.44.6-.68v-1.69c.2-.22.4-.43.6-.64v-2.3c.2-.22.4-.43.6-.64v-1.71c.16-.16.29-.29.47-.47.05-.41.1-.87.16-1.32.14-.14.28-.28.42-.42.24-.55-.04-1.14.25-1.94,0,0,.17-.21.4-.48v-1.65c.2-.23.39-.44.6-.68v-1.69c.2-.22.4-.43.6-.64v-1.13c.2-.22.4-.43.6-.65v-1.12c.16-.16.29-.29.43-.43.24-.55.08-1.13.13-1.78.12-.15.29-.37.53-.67.01-.18.07-.46.04-.73-.05-.46.27-.68.56-.97v-1.11c.2-.22.39-.44.6-.67v-1.11c.2-.22.4-.43.6-.65v-1.13c.21-.23.4-.44.6-.66v-1.12c.16-.16.3-.3.44-.44.23-.34.07-.74.14-1.21.11-.14.28-.36.52-.65v-1.03c.2-.23.38-.45.6-.71v-1.08c.2-.22.39-.43.6-.66v-1.12c.2-.22.39-.43.6-.65v-1.13c.24-.3.63-.47.58-.95-.04-.33.29-.46.54-.78.01-.27.03-.64.06-1.11.12-.14.29-.36.52-.65v-.92c.18-.55.84-.73.61-1.35.19-.2.38-.41.58-.64v-1.13c.2-.21.39-.42.58-.63,0-.2.02-.39.02-.56.2-.22.39-.43.59-.66v-1.11c.29-.29.59-.51.56-.97-.02-.3.34-.43.48-.67.09-.15.01-.39.1-.54.13-.24.34-.45.55-.72v-1.08c.2-.22.4-.43.6-.65v-.55c.2-.21.4-.42.58-.62.01-.21.02-.4.03-.56.2-.22.38-.44.58-.66v-1.03c.22-.31.38-.54.55-.76-.16-.57.59-.74.57-1.21-.02-.47.32-.66.56-.94.01-.19.02-.38.03-.58.18-.2.38-.41.58-.62v-.56c.2-.22.39-.42.58-.62.01-.21.03-.4.04-.59.24-.28.62-.47.55-.94-.01-.08.02-.22.07-.25.57-.3.37-1.04.82-1.41.07-.06.14-.14.24-.24v-1.1c.2-.23.39-.44.59-.66,0-.17.02-.36.03-.56.19-.2.38-.41.58-.63v-.57c.14-.14.29-.27.41-.42.28-.36.74-.56.78-1.14.02-.32.49-.6.52-.92.04-.45.33-.65.54-.95.16-.21-.02-.56.21-.78.14-.13.27-.27.42-.42v-.55c.2-.22.4-.43.6-.65v-.55c.21-.23.4-.44.57-.63,0-.31-.04-.61.25-.79.38-.23.29-.66.4-.98.35-.35.69-.69,1.04-1.04.02-.19.03-.37.05-.59.17-.19.36-.4.57-.63v-.54c.2-.22.39-.43.6-.65v-.53c.21-.23.4-.44.57-.63.02-.22.04-.41.06-.59.39-.24.54-.82,1.11-.82Z"/>
  <path class="st0" d="M423.99,707.13c.21-.2.42-.39.64-.6h23.76c.15-.15.29-.29.47-.47.7-.23,1.47-.05,2.22-.08.87-.04,1.74,0,2.61,0h2.22l.48-.48c.55-.19,1.13-.08,1.69-.09.68-.02,1.35,0,2.03,0,.57-.02,1.14.09,1.69-.09.14-.14.28-.28.45-.45h4c.23-.2.44-.39.68-.6h4.01c.22-.2.43-.4.64-.6h3.46c.22-.2.42-.4.64-.6h2.87l.46-.46c.79-.29,1.67.04,2.5-.18.14-.14.27-.27.41-.41.83-.26,1.7.07,2.53-.2.14-.14.27-.27.44-.44h1.68c.23-.2.44-.39.68-.6h1.69c.22-.2.43-.4.64-.6h1.71c.22-.2.43-.4.65-.6h1.68c.25-.22.46-.4.65-.56h1c.16-.13.35-.39.59-.47.35-.11.74-.1,1.23-.16.13-.1.34-.28.61-.51h1.07c.23-.2.44-.39.67-.6h1.11c.22-.2.43-.4.65-.6h1.13c.22-.2.43-.4.65-.6h1.09c.25-.22.47-.4.65-.56h1c.17-.13.38-.3.68-.54h1.03c.23-.2.42-.51.65-.55.49-.08.9-.22,1.18-.65h1.15c.22-.2.43-.4.65-.6h.54c.23-.21.44-.4.66-.6h1.14c.26-.48.73-.56,1.19-.64.35-.66.98-.47,1.54-.49.43-.13.61-.8,1.23-.57.2-.19.41-.38.64-.58h.54c.22-.2.43-.39.65-.6h1.15c.28-.43.68-.62,1.19-.63.28-.44.77-.45,1.18-.64.32-.15.53-.48.97-.49.22,0,.41-.36.66-.49.15-.08.4.02.55-.07.24-.14.44-.36.67-.56h.54c.21-.2.42-.39.64-.6h1.1c.25-.21.47-.39.69-.57.57.16.77-.53,1.21-.56.45-.02.64-.38.96-.5.44-.16.91-.2,1.17-.64.21-.01.4-.03.61-.04.4-.38.81-.77,1.22-1.16.21-.01.4-.02.55-.03.24-.2.46-.51.68-.52.44-.02.67-.26.97-.49.2-.15.51-.15.77-.22.34-.34.69-.69,1.03-1.03.19-.01.38-.02.58-.03.2-.19.41-.38.62-.58h.57c.4-.4.81-.81,1.14-1.14.3-.04.49-.06.67-.09.34-.34.68-.68,1.03-1.03.18-.02.37-.04.75-.08.26-.33.61-.78.89-1.14h.75c.43-.39.77-.86,1.27-1.16.18-.03.37-.05.55-.08.55-.55,1.09-1.09,1.65-1.65h.55c.63-.6,1.24-1.2,1.8-1.74.28-.04.46-.07.71-.11.7-.72,1.44-1.48,2.17-2.24h.59c4.25-4.25,8.48-8.49,12.74-12.72.31-.31.26-.67.52-1.29.75-.75,1.7-1.7,2.71-2.71,0-.09-.04-.33.06-.45.52-.57,1.08-1.1,1.63-1.65.01-.19.03-.38.04-.59.38-.4.77-.81,1.16-1.22.01-.21.02-.4.03-.55.2-.24.51-.46.52-.68.02-.44.26-.67.49-.97.15-.2.15-.51.22-.77.34-.34.69-.69,1.03-1.03.01-.19.02-.38.03-.58.19-.2.38-.41.58-.62v-.56c.2-.22.4-.43.58-.62.01-.21.03-.4.04-.54.2-.25.51-.46.52-.69.01-.44.26-.67.5-.97.22-.27.05-.72.41-.99.31-.23.55-.54.83-.81,0-.19.02-.38.03-.58.19-.2.38-.41.58-.63v-.55c.2-.22.4-.43.57-.62.02-.21.03-.4.05-.59.43-.28.6-.7.61-1.19.34-.34.69-.69,1.03-1.03-.05-.53.22-.89.62-1.2v-.55c.2-.22.4-.43.6-.65v-.54c.21-.23.4-.44.57-.63,0-.31-.04-.61.25-.79.38-.23.29-.66.4-.98.35-.35.69-.69,1.04-1.04.02-.19.03-.37.05-.59.17-.19.36-.4.57-.63v-.54c.2-.22.4-.43.6-.65v-.54c.21-.23.4-.44.57-.63.02-.22.04-.41.06-.59.34-.34.68-.68,1.03-1.03.02-.49.18-.91.61-1.19.02-.19.03-.38.05-.59.18-.19.37-.4.57-.63v-.55c.2-.22.39-.42.6-.65v-.55c.41-.31.67-.68.63-1.2l1.03-1.03c0-.5.19-.91.61-1.19.01-.19.03-.38.04-.59.18-.2.37-.4.58-.62v-.74c.36-.28.81-.63,1.14-.89.04-.38,0-.65.1-.73.41-.32.52-.75.58-1.19.37-.37.71-.71,1.05-1.05.01-.19.02-.38.04-.59.18-.2.38-.41.58-.62v-.56c.2-.21.39-.42.58-.62.01-.21.02-.4.04-.58.37-.43.88-.74,1.12-1.28.07-.16.08-.36.11-.53.34-.34.68-.68,1.03-1.03,0-.19.02-.38.03-.58.19-.2.38-.41.58-.62v-.57c.39-.42.86-.77,1.16-1.26.02-.18.05-.37.08-.58.73-.73,1.48-1.48,2.25-2.25v-.55c2.33-2.33,4.66-4.65,6.97-6.98.23-.23.48-.27.93-.25.28-.36.64-.82.92-1.17h.75c.43-.39.77-.86,1.27-1.16.18-.03.37-.05.55-.08.34-.34.68-.68,1.03-1.03.53.05.89-.22,1.2-.62h.55c.22-.2.43-.4.65-.6h1.13c.22-.2.43-.4.63-.57.22-.02.4-.03.59-.05.27-.25.48-.59.94-.54.27.03.56-.02.8-.04l.45-.45c.56-.2,1.14.02,1.87-.19.06-.05.28-.23.54-.45h2.82c.22-.2.43-.39.66-.6h27.8c.22-.2.43-.4.65-.6h3.44c.23-.21.44-.4.66-.6h1.69c.16-.16.3-.3.44-.44.55-.23,1.13-.08,1.78-.13.16-.13.38-.3.67-.53h.89c.58-.17.75-.84,1.37-.61.2-.18.41-.38.64-.58h1.12c.22-.2.43-.39.65-.6h.55c.28-.28.59-.53.82-.84.27-.36.67-.26.99-.39l1.66-1.66h.6c1.63-1.63,3.28-3.26,4.89-4.93.3-.31.68-.23.99-.39.35-.35.69-.69,1.04-1.04.19-.01.38-.02.64-.04.42.46.87.96,1.38,1.52,0,.07.02.26.04.48.18.19.37.4.57.63v2.3c-.19.2-.38.41-.58.63v2.27c-.21.23-.4.44-.6.67v1.11c-.17.17-.3.3-.44.44-.38.53.36,1.45-.65,1.69v1.22c-.2.23-.38.44-.6.7v1.09c-.2.22-.39.43-.6.65v1.13c-.2.21-.39.42-.6.64v1.11c-.21.24-.4.45-.6.67v1.69c-.17.17-.3.3-.44.44-.28.82.05,1.7-.2,2.53-.14.14-.27.27-.41.41-.02.09-.07.17-.07.26,0,1.06,0,2.13,0,3.23.16.19.35.4.56.65v1.68c.2.22.4.43.6.64v.56c.2.21.4.42.58.62.01.21.02.4.03.55.2.24.51.46.52.68.02.44.26.67.49.97.15.2.15.51.22.77.34.34.69.69,1.03,1.03.01.19.02.38.03.44,1.15,1.15,2.23,2.23,3.37,3.37.1,0,.37-.04.45.06.32.41.79.43,1.2.63.32.15.53.45.97.49.43.04.63.74,1.22.54.22.2.42.39.64.59h.55c.21.2.42.39.64.6h1.14c.31.42.68.66,1.2.63.14.14.28.28.48.48.3.01.67.03,1.14.06.15.12.37.3.65.53h1.05c.23.2.44.38.69.6h1.1c.22.2.43.4.64.6h1.14c.21.2.42.4.64.6h1.11c.24.21.45.4.68.6h1.1c.17.17.31.31.44.44.56.19,1.13.06,1.77.11.17.14.39.32.66.54h1.06c.23.2.44.39.68.6h1.69c.22.2.43.4.64.6h1.14c.22.2.43.39.64.6h1.68c.25.21.46.4.69.6h1.67c.17.17.31.31.45.45.08.03.17.09.25.09,1.84,0,3.67,0,5.51,0,.08,0,.16-.07.25-.1.14-.14.27-.27.44-.44h2.26c.23-.2.44-.39.68-.6h1.69c.22-.2.43-.4.64-.6h1.13c.22-.2.43-.4.65-.6h1.15c.27-.47.71-.58,1.19-.64.35-.65.97-.48,1.55-.5.4-.15.62-.74,1.19-.58.22-.18.43-.36.68-.57h.51c.22-.2.43-.4.65-.6h.55c.22-.2.43-.4.63-.57.22-.02.4-.03.59-.05.34-.34.68-.68,1.03-1.03.18-.03.36-.06.54-.09.51-.28.84-.76,1.28-1.15h.55c.42-.4.84-.79,1.23-1.16.23-.02.48.03.59-.07.57-.52,1.1-1.08,1.65-1.63.19-.02.37-.03.49-.04,2.08-2.08,4.13-4.13,6.24-6.24v-.45c.14-.14.29-.27.41-.42.29-.35.74-.56.77-1.14.02-.32.36-.61.55-.92-.16-.57.61-.72.57-1.21-.04-.48.35-.64.58-.94v-1.13c.2-.22.39-.43.58-.63v-7.52c-.21-.23-.4-.44-.6-.66v-1.11c-.16-.16-.3-.3-.44-.44-.04-.18-.1-.35-.11-.53-.03-.37.09-.78-.3-1.04-.44-.28-.15-.91-.61-1.21-.32-.21-.56-.53-.83-.81v-.74c-.36-.28-.81-.63-1.14-.89-.04-.38.01-.63-.09-.74-1.97-2-3.95-3.98-5.94-5.96-.18-.03-.36-.06-.64-.1-.56-.54-1.18-1.13-1.81-1.74h-.53c-.22-.19-.42-.37-.61-.53-.35.2-.25.52-.28.83-.58.58-1.18,1.19-1.72,1.73-.08.69-.08.69-.92,1.46-.19,0-.38.02-.55.03-.22.2-.43.39-.68.6-.25-.08-.51-.17-.75-.25v-1.81c.18-.2.37-.41.57-.62v-1.13c.2-.22.4-.43.6-.65v-1.09c.22-.25.4-.47.56-.65v-1c.13-.17.3-.38.5-.64.02-.13.09-.32.07-.49-.06-.53.1-.93.56-1.24v-1.14c.2-.22.39-.43.6-.66v-1.12c.2-.22.4-.43.6-.65v-1.12c.21-.23.4-.44.6-.66v-1.14c.48-.26.56-.73.64-1.19.66-.35.47-.98.5-1.59.15-.18.33-.39.55-.65v-1.09c.2-.22.39-.43.6-.66v-.54c.2-.22.39-.43.6-.65v-1.11c.21-.23.4-.44.6-.67v-1.11c.29-.29.57-.51.58-.97,0-.23.29-.46.51-.79v-.89c.18-.55.84-.73.61-1.34.19-.2.38-.41.58-.64v-1.13c.2-.21.39-.42.58-.63,0-.2.02-.39.03-.58.23-.28.63-.46.56-.93-.01-.08.01-.2.06-.26.12-.15.27-.28.45-.46.02-.22.03-.5.06-.78.02-.18,0-.46.11-.52.46-.29.4-.81.61-1.21.09-.16.27-.28.4-.41.01-.19.03-.38.04-.59.18-.2.38-.41.58-.62v-.74c.35-.28.81-.63,1.14-.89.05-.38.07-.56.09-.75.68-.68,1.37-1.37,2.05-2.05.71-.71.8-.7,1.63.06h2.28c.22.2.43.39.66.6h.55c.22.2.43.39.65.6h1.13c.35.35.69.69,1.05,1.05.29.19.69.07.99.39,1.33,1.39,2.71,2.74,4.04,4.06.02.26.04.45.05.64.34.34.68.68,1.03,1.03.07.26.07.58.22.77.25.3.46.55.48.98.01.22.34.43.54.67v1.11c.2.22.4.43.6.65v1.12c.21.23.4.44.6.66v1.11c.16.16.3.3.44.44.26.63-.01,1.31.2,1.95.14.14.27.27.41.41.03.09.08.17.08.26,0,.87,0,1.74,0,2.66.16.18.34.4.56.65v5.15c.2.22.39.43.6.66v9.26c-.19.2-.38.41-.59.64v4.61c-.15.15-.28.28-.44.44-.28.62-.1,1.3-.13,1.95-.03.57,0,1.14,0,1.66-.19.19-.33.33-.47.47-.29.82.04,1.7-.2,2.53-.14.14-.27.27-.41.41-.18.56.02,1.14-.16,1.85-.08.09-.26.31-.48.56v1.67c-.2.22-.39.43-.6.65v1.71c-.2.21-.39.42-.6.64v1.69c-.21.24-.4.45-.6.67v1.68c-.17.17-.3.3-.44.44-.28.56.18,1.39-.65,1.79v1.12c-.2.23-.38.44-.58.67-.01.16-.02.35-.04.56-.18.2-.38.41-.58.62v1.14c-.2.21-.4.42-.6.64v1.13c-.25.3-.64.49-.57.95.01.08-.01.23-.07.25-.57.3-.37,1.04-.82,1.41-.07.06-.14.14-.24.24v1.1c-.2.23-.39.44-.58.67,0,.17-.02.35-.03.56-.18.2-.38.41-.58.62v.56c-.2.22-.39.42-.58.62-.01.21-.03.4-.04.54-.2.25-.37.47-.55.69.16.57-.55.76-.56,1.21-.01.45-.41.64-.51.96-.14.46-.22.9-.65,1.17-.01.21-.02.4-.03.6-.19.2-.38.41-.58.63v.55c-.2.22-.4.43-.57.62-.02.21-.03.4-.04.59-.34.34-.68.68-1.03,1.03-.07.26-.07.58-.22.77-.24.3-.46.54-.48.98,0,.22-.33.44-.54.68v.52c-.4.42-.8.84-1.17,1.23-.02.22-.04.41-.05.6-.44.28-.59.71-.61,1.19-.34.34-.69.69-1.03,1.03-.02.19-.03.37-.06.6-.37.39-.76.81-1.17,1.23v.55c-.56.56-1.1,1.1-1.65,1.65-.03.18-.05.36-.09.59-.66.89-1.62,1.56-2.31,2.46-.02.21-.04.39-.06.58-3.15,3.14-6.29,6.29-9.43,9.43-.18.03-.36.05-.59.09-.89.67-1.56,1.63-2.45,2.31-.21.02-.4.04-.58.06-.55.55-1.09,1.09-1.64,1.64-.19.01-.38.03-.62.04-.58.57-1.18,1.18-1.73,1.72-.29.03-.56-.01-.64.09-.32.41-.75.52-1.19.58-.37.37-.71.71-1.05,1.05-.19.01-.38.02-.59.03-.2.18-.41.38-.62.58h-.56c-.22.2-.42.39-.62.58-.21.01-.4.03-.56.04-.23.2-.44.38-.67.58h-1.1c-.17.17-.31.31-.49.49-.23.02-.51.07-.78.04-.46-.05-.68.26-.98.56h-1.11c-.23.2-.44.39-.68.6h-1.69c-.22.2-.43.4-.64.6h-2.29c-.22.2-.43.4-.6.56h-9.82c-.27-.21-.49-.39-.71-.56-.57.16-.76-.55-1.21-.56-.46,0-.64-.42-.95-.51-.46-.13-.9-.22-1.18-.66h-.57c-.22-.2-.43-.4-.65-.6h-.58c-.28-.41-.67-.64-1.18-.62-.28-.43-.76-.47-1.18-.64-.32-.13-.51-.55-.97-.48-.07.01-.18-.05-.24-.11-.35-.34-.69-.68-1.04-1.03h-.55c-.42-.4-.84-.79-1.23-1.17-.23-.02-.41-.04-.6-.06-.34-.34-.68-.68-1.03-1.03-.18-.03-.36-.06-.59-.09-.89-.66-1.56-1.62-2.46-2.31-.2-.02-.39-.04-.57-.06-1.98-1.98-3.97-3.97-5.96-5.96-.12-.32-.06-.71-.39-.99-.51-.44-.96-.94-1.44-1.42v-.58c-.28-.28-.53-.59-.84-.82-.36-.27-.27-.67-.39-.99-.35-.35-.69-.69-1.04-1.04-.02-.19-.03-.37-.05-.59-.18-.19-.37-.4-.57-.63v-.55c-.2-.22-.39-.43-.6-.65v-1.11c-.21-.23-.4-.45-.6-.67v-1.11l-.49-.49c-.02-.22-.03-.5-.06-.77-.02-.18,0-.46-.1-.52-.46-.3-.41-.81-.61-1.21-.09-.16-.27-.28-.42-.43v-1.12c-.2-.22-.4-.43-.6-.65v-1.13c-.2-.21-.4-.42-.6-.64v-1.16c-.44-.27-.61-.7-.63-1.19-.58-.37-.58-.94-.48-1.55-.18-.22-.35-.43-.58-.71v-1.05c-.2-.23-.38-.44-.6-.69v-1.1c-.2-.22-.4-.43-.6-.64,0-.18,0-.38,0-.57-.14-.22-.29-.29-.41-.17-.75.74-1.5,1.49-2.2,2.19-.27.03-.46.04-.64.06-.34.34-.68.68-1.03,1.03-.49.02-.91.18-1.19.61-.19.02-.38.03-.59.05-.19.18-.4.37-.63.57h-.55c-.21.2-.42.39-.63.58-.2,0-.39.02-.56.02-.22.2-.43.39-.66.59h-1.12c-.4.58-.92.72-1.52.47-.27.22-.49.39-.74.6-.51.13-1.09.04-1.71.06-.18.16-.4.34-.65.56h-1.68c-.22.2-.43.4-.65.6h-3.45c-.21.2-.42.4-.64.6h-5.77c-.15.15-.29.29-.42.42-.08.05-.15.13-.23.13-2.51,0-5.01,0-7.45,0l-.5-.5c-.72-.19-1.49-.05-2.25-.07-.87-.03-1.74.01-2.61-.01-.76-.02-1.53.11-2.26-.07-.16-.16-.3-.3-.47-.47h-4.58c-.23-.2-.44-.38-.69-.6h-4.04c-.18.17-.39.36-.6.56h-.56c-.21.2-.42.4-.62.58-.21.01-.4.02-.59.03-.34.34-.68.68-1.03,1.03-.26.07-.6.05-.77.22-2.96,2.92-5.89,5.86-8.82,8.82-.1.1-.06.36-.1.66-.74.74-1.55,1.55-2.29,2.29q-.1.67-1.73,2.31c0,.19-.02.38-.03.61-.58.59-1.19,1.2-1.72,1.74-.04.3-.07.48-.09.66-.34.34-.71.67-1.01,1.04-.1.12-.05.36-.09.74-.33.26-.79.61-1.15.89v.74c-.28.28-.53.59-.83.82-.35.27-.29.66-.39.99-.35.35-.69.69-1.04,1.04-.02.19-.04.37-.06.6-.37.39-.76.8-1.16,1.22v.56c-.28.28-.53.59-.84.82-.35.27-.27.67-.39.99-.35.35-.69.69-1.04,1.04-.02.19-.03.37-.05.59-.17.19-.37.4-.57.63v.72c-.36.28-.81.64-1.15.9-.04.38,0,.62-.09.74-.31.37-.67.69-1.01,1.04-.01.49-.18.91-.61,1.19-.01.19-.03.38-.05.6-.38.39-.77.81-1.16,1.22,0,.2-.02.39-.03.58-.4.3-.65.67-.61,1.19l-1.03,1.03c0,.5-.19.91-.61,1.19-.01.19-.02.38-.04.59-.18.2-.38.41-.58.62v.58c-.13.13-.29.25-.41.4-.28.36-.8.55-.76,1.14.03.42-.6.54-.55.92.09.65-.8.85-.6,1.5-.38.43-.76.85-1.16,1.3v.52c-.2.22-.4.43-.58.62-.01.21-.03.4-.04.59-.42.29-.62.69-.61,1.19l-1.03,1.03c.04.52-.21.9-.61,1.19,0,.19-.02.38-.03.58-.39.41-.78.82-1.16,1.22-.02.22-.03.41-.05.6-.43.28-.6.7-.61,1.19-.34.34-.71.67-1.01,1.04-.1.12-.05.36-.07.6-.37.38-.76.79-1.16,1.21v.55c-.21.23-.4.44-.57.63-.02.22-.04.4-.05.59-.34.34-.68.68-1.03,1.03-.01.87-.75,1.26-1.24,1.82v.56c-.4.42-.79.83-1.16,1.22-.02.23-.04.42-.06.6-.34.34-.68.68-1.04,1.04-.1.33-.04.72-.39.99-.31.23-.55.54-.83.82v.74c-.36.28-.81.63-1.14.89-.04.38,0,.63-.09.74-.52.57-1.08,1.1-1.63,1.65-.01.19-.03.38-.04.62-.57.57-1.18,1.18-1.72,1.73-.03.29.01.53-.09.65-.52.57-1.08,1.1-1.63,1.65-.01.19-.02.38-.04.61-.74.7-1.52,1.43-2.17,2.05-.11.44-.1.78-.26.95-2.57,2.61-5.17,5.2-7.7,7.72q-.67.09-2.3,1.72c-.19.01-.38.02-.58.03-.4.38-.82.78-1.22,1.16-.21.01-.4.03-.59.04-.34.34-.68.68-1.03,1.03-.26.07-.58.07-.77.22-.3.24-.54.47-.98.49-.22,0-.44.33-.68.53-.15,0-.34.02-.54.03-.2.19-.41.38-.63.58h-.58c-.28.41-.66.65-1.18.62-.29.58-1.02.41-1.4.82-.38.42-1.11.24-1.4.82-.5,0-.91.2-1.19.63h-1.15c-.22.2-.43.4-.65.6h-1.12c-.23.21-.44.4-.63.57-.22.02-.4.03-.59.05-.14.14-.27.27-.41.41-.55.23-1.13.08-1.78.13-.16.13-.38.3-.67.53-.19.01-.47.07-.74.04-.46-.05-.67.28-.97.56h-1.69c-.22.2-.43.39-.66.6h-1.7c-.22.2-.43.4-.65.6h-1.7c-.23.21-.44.4-.66.6h-2.27c-.16.16-.3.3-.47.47-.99.27-2.05-.08-3.07.17-.14.14-.28.28-.42.42-.09.03-.17.08-.26.08-1.06,0-2.13,0-3.24,0-.18.16-.4.34-.65.56h-3.99c-.22.2-.43.39-.66.6h-6.35c-.22.2-.43.39-.63.58h-19.12c-.23-.21-.44-.4-.67-.6h-6.91l-.44-.44c-.55-.21-1.12-.09-1.69-.1-.68-.02-1.35,0-2.03,0-.57-.01-1.14.08-1.7-.08-.14-.14-.28-.28-.41-.41-.09-.03-.17-.08-.26-.08-1.45,0-2.9,0-4.4,0-.19-.16-.4-.34-.65-.56h-3.99c-.22-.2-.43-.39-.65-.6h-2.87c-.21-.2-.42-.39-.64-.6h-2.85c-.24-.21-.45-.4-.67-.6h-2.85c-.17-.17-.3-.3-.44-.44-.82-.29-1.7.05-2.53-.2-.14-.14-.27-.27-.41-.41-.76-.16-1.53-.02-2.37-.1-.15-.13-.37-.32-.62-.53h-1.68c-.22-.2-.43-.4-.65-.6h-1.71c-.21-.2-.42-.4-.64-.6h-1.69c-.24-.21-.45-.4-.68-.6h-1.68c-.17-.17-.31-.31-.44-.44-.56-.2-1.13-.07-1.77-.11-.17-.14-.38-.31-.66-.54h-1.63c-.23-.2-.44-.38-.69-.6h-1.1c-.22-.2-.43-.4-.64-.6h-1.14c-.21-.2-.42-.39-.64-.6h-1.11c-.24-.21-.46-.4-.68-.6h-1.1c-.17-.17-.31-.31-.49-.49-.23-.02-.51-.03-.78-.06-.18-.02-.46,0-.52-.11-.29-.47-.82-.38-1.21-.61-.16-.1-.28-.27-.41-.4-.19-.01-.38-.02-.58-.03-.2-.19-.41-.38-.62-.58h-.55c-.22-.2-.43-.4-.62-.58-.21-.01-.4-.03-.51-.04l-1.47-1.47v-.53c.38-.46,1.17-.19,1.42-.85h2.3c.22-.2.43-.4.63-.59,3.28,0,6.57,0,9.84,0Z"/>
  <path class="st0" d="M368.01,720.76c.27-.27.55-.54.85-.84h1.74c.17.15.38.34.6.55h.54c.22.2.43.4.65.6h.54c.23.21.44.4.65.58.46-.1.74.14.98.45.19.04.37.13.54.11.51-.05.89.12,1.26.49.23.23.74.05.97.43.18.3.51.18.76.27.25.09.44.35.67.55h1.12c.22.2.43.39.65.6h1.12c.3.24.47.63.95.58.33-.04.46.29.69.47.55.29,1.38-.19,1.78.65h1.11c.23.2.44.38.69.6h1.09c.22.2.43.4.65.6h1.13c.21.2.42.4.64.6h1.11c.24.21.45.4.68.6h1.1c.56.57.57.57,1.56.55.15.1.31.2.45.31.08.06.14.13.24.24h1.68c.23.2.44.38.69.6h1.1c.22.2.43.4.64.6h1.14c.21.2.42.4.64.6h1.69c.24.21.45.4.68.6h1.69c.39.62.95.64,1.54.49.25.2.46.38.74.6h1.64c.23.2.44.39.68.6h1.69c.22.2.43.4.64.6h1.72c.22.2.43.4.64.6h1.71c.16.16.29.29.43.43.62.3,1.31,0,1.95.2.14.14.27.27.41.41.56.18,1.13.06,1.77.1.17.14.39.32.66.54h1.65c.23.2.44.39.67.6h2.27c.22.2.43.4.64.6h1.71c.22.2.43.4.65.6h2.28c.16.16.29.29.45.45.8.28,1.67-.05,2.5.18.14.14.27.27.42.42,1.01.25,2.07-.1,3.07.17l.46.46h2.27c.22.2.44.39.67.6h2.85c.22.2.43.4.65.6h3.45c.22.2.43.4.66.6h3.44c.16.16.3.3.47.47.71.21,1.48.03,2.23.08.66.05,1.34-.08,1.99.08.14.14.28.28.41.41.08.03.17.08.25.08,1.64,0,3.29,0,4.99,0,.18.15.4.33.66.55h5.72c.22.2.43.39.66.6h6.92c.22.2.43.4.65.6h8.08c.23.21.44.4.66.6h10.98c.16.16.3.3.43.43.08.04.16.11.24.12.19.02.39,0,.58,0,12.09,0,24.17,0,36.26,0,.09,0,.17.05.26.08.14.14.27.27.41.41.08.03.17.08.25.08,2.61,0,5.22,0,7.89,0,.18.15.4.33.69.58.48,0,1.05,0,1.63,0,.21,0,.39.35.37.67-.01.19-.09.35-.29.48h-.55c-.22.2-.43.4-.65.6h-.56c-.14.14-.28.29-.42.42-.07.06-.15.1-.26.18h-1.08c-.16.16-.3.3-.44.44-.54.28-1.13-.03-2.03.32.09-.07-.13.1-.4.32-.49.17-1.07-.04-1.8.15-.07.06-.29.24-.54.46h-1.67c-.22.2-.43.39-.66.6h-2.28c-.22.2-.43.39-.65.6h-2.27c-.23.21-.44.4-.67.6h-2.85c-.16.16-.3.3-.44.44-.55.21-1.12.07-1.69.11-.47.04-.95-.09-1.4.08-.15.15-.28.28-.42.42-.09.03-.17.08-.26.08-.87,0-1.74,0-2.66,0-.19.16-.4.34-.65.56h-3.41c-.22.2-.43.39-.65.6h-3.45c-.21.2-.42.39-.64.6h-4.03c-.15.15-.28.29-.42.42-.07.06-.15.1-.28.18h-3.96c-.17.17-.3.3-.45.45-.55.2-1.12.08-1.69.1-.48.02-.97,0-1.45,0h-1.61c-.23.23-.37.37-.5.5-.09.03-.17.07-.26.07-1.64,0-3.29,0-4.98,0-.19.16-.4.34-.65.56h-6.9c-.22.2-.43.39-.65.6h-7.51c-.21.2-.42.39-.64.6h-9.81c-.24.21-.45.4-.68.6h-1.68c-.1.1-.17.17-.24.24.14.1.27.29.41.3.95.03,1.91.01,2.76.01.23.23.37.37.51.51.09.02.17.07.26.07,2.03,0,4.06,0,6.13,0,.19.16.4.35.65.56h7.48c.22.2.43.4.64.6h8.68c.21.2.42.4.64.6h13.9c.15.15.29.29.43.43.08.05.15.13.23.13.19.02.39,0,.58,0,11.51,0,23.01,0,34.52,0,.09,0,.18.04.26.06.14.14.27.27.44.44.72.19,1.49.03,2.25.08.66.04,1.33-.09,1.99.09.14.14.28.28.42.41.29.15.75-.07.89.41-.27.27-.54.54-.82.82h-.57c-.21.2-.42.4-.62.58-.21.01-.4.02-.56.03-.23.2-.44.38-.66.58h-1.71c-.3.48-.73.63-1.24.54-.45-.07-.69.25-.98.55h-2.26c-.23.2-.44.39-.68.6h-1.69c-.22.2-.43.4-.64.6h-2.3c-.22.2-.42.39-.64.6h-2.87c-.16.16-.29.29-.46.46-.79.29-1.67-.04-2.5.18-.14.14-.27.27-.43.43-1.01.25-2.07-.1-3.07.17-.16.16-.3.3-.46.46h-3.42c-.23.2-.44.39-.68.6h-2.85c-.22.2-.43.4-.64.6h-4.03c-.22.2-.43.4-.65.6h-4.02c-.16.16-.29.29-.44.44-.54.24-1.12.09-1.68.12-.48.02-.97,0-1.45,0h-1.63c-.21.21-.35.35-.49.49-.56.17-1.13.07-1.7.09-.48.02-.97,0-1.45,0h-1.58c-.25.25-.38.38-.55.55h-5.75c-.23.2-.44.39-.67.6h-6.91c-.22.2-.43.4-.64.6h-8.67c-.22.2-.43.4-.68.62-2.29,0-4.61,0-6.92,0-.07,0-.16.12-.19.2-.02.05.06.17.11.19.17.06.35.11.53.13.47.04.95-.07,1.41.07.14.14.28.28.44.44.73.16,1.5.04,2.26.07.68.02,1.35-.02,2.03.01.76.03,1.53-.12,2.24.08.17.17.3.3.47.47h6.91c.22.2.44.39.67.6h9.23c.22.2.43.4.65.6h13.31c.22.2.43.4.65.6h35.93c.16.16.3.3.47.47.71.22,1.47.03,2.23.09.66.05,1.34-.07,1.89.05.31.21.52.45.77.51.27.07.53.05.68.34-.27.27-.55.55-.83.83h-.55c-.22.2-.43.4-.65.6h-.55c-.23.21-.44.4-.66.6h-1.7c-.3.28-.5.62-.97.56-.27-.03-.56.02-.8.04-.17.17-.31.31-.47.47-.74.15-1.5.02-2.32.07-.18.15-.39.33-.65.55h-1.66c-.22.2-.43.39-.66.6h-2.28c-.22.2-.43.4-.65.6h-2.86c-.23.21-.44.4-.66.6h-2.27c-.16.16-.3.3-.44.44-.54.21-1.12.07-1.69.11-.47.04-.95-.08-1.4.08-.15.15-.28.28-.42.42-.09.03-.17.08-.26.08-1.06,0-2.13,0-3.24,0-.18.16-.4.34-.65.56h-2.83c-.22.2-.43.39-.66.6h-4.03c-.22.2-.43.39-.65.6h-4.03c-.15.15-.28.29-.42.42-.07.06-.15.1-.27.18h-4.54c-.17.17-.3.3-.44.44-.55.21-1.12.08-1.69.1-.48.02-.97,0-1.45,0h-1.61c-.23.23-.37.37-.5.5-.09.03-.17.07-.26.07-1.84,0-3.67,0-5.56,0-.19.16-.4.34-.65.56h-6.89c-.22.2-.43.39-.65.6h-8.67c-.21.2-.42.39-.64.6h-12.13c-.24.21-.45.4-.67.6h-6.3c-.37.22-.27.53-.29.8.14.11.27.28.43.31.37.07.76-.07,1.12.1.14.14.28.28.41.41.09.03.17.07.26.07,1.45,0,2.9,0,4.4,0,.19.16.4.34.65.56h5.16c.22.2.43.4.65.6h5.77c.21.2.42.39.64.6h6.93c.15.15.29.29.42.42.08.05.15.13.23.14.19.02.39,0,.58,0,2.42,0,4.83,0,7.25,0,.09,0,.18.04.26.06.14.14.27.27.44.44.72.19,1.49.05,2.25.07.77.03,1.55,0,2.32,0h2.61c.77,0,1.55-.02,2.32,0,.76.02,1.53-.1,2.26.07.16.16.3.3.43.43.09.02.17.07.26.07,12.28,0,24.56,0,36.88,0,.19.16.4.34.65.56h7.48c.22.2.43.39.65.6h1.14q.44.61-.03,1.16c-.19,0-.38.02-.57.03-.3.4-.67.65-1.19.61-.14.14-.28.28-.48.48-.3.01-.67.03-1.14.06-.15.12-.37.3-.65.53h-1.63c-.23.2-.44.38-.69.6h-1.68c-.22.2-.43.4-.64.6h-2.3c-.21.2-.42.39-.64.6h-2.29c-.15.15-.29.29-.46.46-.79.29-1.66-.05-2.49.17-.14.14-.27.27-.43.43-1,.26-2.07-.09-3.07.17-.16.16-.29.29-.46.46h-2.84c-.23.2-.44.39-.68.6h-2.85c-.22.2-.43.4-.64.6h-2.88c-.22.2-.43.4-.64.6h-3.45c-.16.16-.29.29-.47.47-.7.23-1.47.05-2.22.08-.67.03-1.34,0-1.93,0-.21.21-.35.35-.49.49-.55.18-1.13.07-1.7.09-.48.02-.97-.01-1.45,0-.57.02-1.14-.1-1.69.1-.14.14-.28.28-.45.45h-4.58c-.23.2-.44.39-.68.6h-5.75c-.22.2-.43.4-.64.6h-6.36c-.22.2-.43.4-.65.6h-8.09c-.16.16-.29.29-.43.43-.08.04-.15.12-.24.12-.19.02-.39,0-.58,0-2.8,0-5.61,0-8.41,0-.09,0-.17.05-.26.07-.14.14-.27.27-.41.41-.08.03-.17.09-.25.09-10.15,0-20.3,0-30.46,0-.08,0-.16-.07-.25-.1-.14-.14-.27-.27-.44-.44h-8.65c-.23-.2-.44-.39-.68-.6h-6.33c-.22-.2-.43-.4-.64-.6h-4.61c-.22-.2-.43-.4-.65-.6h-4.02c-.16-.16-.29-.29-.5-.5-1.15-.18-2.4.03-3.58-.1l-.46-.46c-1.01-.25-2.07.1-3.07-.17-.16-.16-.3-.3-.46-.46h-2.85c-.23-.2-.44-.39-.67-.6h-2.27c-.22-.2-.43-.4-.64-.6h-1.71c-.22-.2-.43-.4-.65-.6h-1.7c-.16-.16-.3-.3-.43-.43-.63-.28-1.31,0-1.95-.2-.14-.14-.27-.27-.41-.41-.56-.21-1.14.02-1.88-.19-.05-.05-.27-.23-.53-.45h-1.08c-.22-.2-.43-.39-.67-.6h-1.11c-.22-.2-.43-.4-.65-.6h-1.12c-.23-.21-.44-.4-.66-.6h-1.15c-.26-.48-.73-.56-1.19-.64-.37-.6-.96-.52-1.48-.48-.49-.14-.66-.81-1.28-.59-.2-.18-.41-.38-.64-.58h-1.12c-.22-.2-.43-.39-.65-.6h-.55c-.28-.28-.56-.56-.83-.83,0-.19-.02-.38-.03-.58-.19-.2-.38-.41-.58-.62v-78.31Z"/>
  <path class="st0" d="M656.94,712.63c-.2.21-.39.42-.6.64v2.27c-.21.24-.4.45-.6.68v1.1c-.17.17-.31.31-.44.44-.03.08-.1.16-.1.25,0,.73-.02.73-.51,1.53-.09.14-.05.36-.1.74-.33.26-.78.61-1.14.89v.75c-1.23,1.23-2.46,2.46-3.69,3.69-.49.02-.91.18-1.19.61-.19.01-.38.03-.6.05-.39.37-.81.77-1.23,1.17h-1.11c-.24.21-.45.4-.67.6h-1.11c-.17.17-.3.3-.44.44-2.43.14-5.45.15-8.33.02-.14-.14-.27-.27-.45-.45h-1.09c-.23-.2-.44-.38-.67-.58-.16-.01-.35-.03-.56-.04-.19-.18-.4-.37-.62-.57h-.55c-.21-.2-.42-.39-.63-.58-.2,0-.47.06-.57-.04-1.86-1.82-3.69-3.67-5.49-5.47-.02-.27.02-.58-.07-.62-.69-.34-.33-1.31-1.02-1.62-.04-.37-.08-.75-.12-1.22-.12-.14-.3-.35-.52-.61v-1.08c-.2-.22-.39-.43-.61-.67,0-6.34,0-12.72,0-19.1,0-.07.11-.14.18-.21.18-.04.36-.1.54-.1,17.18-.11,30.26-.07,33.87.08.08.08.22.14.22.21,0,5.61,0,11.21,0,16.81Z"/>
  <path class="st0" d="M696.5,495.94c-.14-3.18-.13-17.13,0-19.54l.44-.44v-1.68c.2-.23.39-.44.58-.66,0-.17.02-.36.03-.56.19-.2.38-.41.58-.63v-.55c.2-.22.4-.43.57-.62.02-.21.03-.4.04-.59.34-.34.68-.68,1.04-1.04.14-.32.07-.7.39-.99.78-.72,1.51-1.49,2.27-2.24.19-.01.38-.03.59-.04.4-.38.81-.77,1.22-1.16.2-.01.39-.02.58-.03.34-.34.68-.68,1.09-1.09.3-.01.68-.03,1.14-.05.15-.13.37-.3.65-.53h1.06c.23-.2.44-.38.68-.6h2.26c.22-.2.43-.4.64-.6h2.3c.21.2.42.39.64.6h2.29c.15.15.29.29.47.47.4.05.86.1,1.31.15.14.14.28.28.41.41.08.03.16.1.25.1.74,0,.73.02,1.53.51.14.09.36.05.74.1.26.33.61.78.89,1.14h.75c.96.96,1.9,1.93,2.88,2.86.32.3.26.67.39.99.35.35.69.69,1.04,1.03.01.19.03.37.05.59.18.19.37.4.57.63v.55c.2.21.39.42.58.63,0,.2.02.39.02.56.2.22.39.43.59.66v1.11c.17.17.3.3.44.44.14,2.37.16,16.86.02,19.9-.08.08-.14.22-.21.22-11.21,0-22.42,0-33.84,0Z"/>
  <path class="st0" d="M457.21,396.15c.1-.29.14-.37.15-.46.01-.09,0-.19,0-.29v-12.47c0-.1-.02-.2,0-.29.02-.08.07-.16.11-.24.07-.06.15-.16.22-.16,1.16-.01,2.31,0,3.41,0,.24.15.31.31.31.51,0,.87-.01,1.74.01,2.61,0,.1.22.2.34.31.76-.76,1.51-1.51,2.27-2.27h.56c.22-.2.43-.4.62-.58.21-.01.4-.03.59-.04.14-.14.27-.27.45-.45.41-.05.87-.1,1.32-.16.14-.14.28-.28.42-.42.08-.03.17-.09.25-.09,3.77,0,7.54,0,11.31,0,.45.1.61.8,1.25.57.26.25.54.51.81.76.04.19.11.37.11.55,0,3.77,0,7.54,0,11.31,0,.37-.08.76.09,1.12.07.07.14.19.21.19,2.51,0,5.03,0,7.53,0,.1-.16.27-.32.27-.47.02-3.96.01-7.93.02-11.89,0-.27.05-.55.07-.77.13-.1.21-.2.28-.2,1.35,0,2.7,0,4,0,.11.11.24.18.24.25,0,4.25,0,8.5,0,12.82.28.22.58.46,1.11.87-.21-.08-.12-.02-.04-.02,2.42,0,4.83,0,7.25,0,.08,0,.16-.07.24-.11.06-.07.17-.14.17-.22,0-7.15,0-14.3,0-21.52.26-.09.51-.17.77-.25.24.22.45.4.69.61,1.01.04,2.05,0,3,.02.12.26.19.34.19.42,0,7.83,0,15.66,0,23.5,0,.08-.06.17-.09.25-.14.14-.27.27-.41.41-.03.18-.02.38-.09.54-.07.15-.22.39-.34.39-3.47.02-6.95.02-10.38.02-.18-.18-.31-.31-.45-.45-.08-.04-.15-.1-.24-.12-.09-.02-.19,0-.29,0-5.03,0-10.06,0-15.08,0-.09,0-.17-.05-.26-.07-.14-.14-.27-.27-.41-.41-2.85-.14-11.14-.13-13.55.01-.14.14-.27.27-.44.44h-15.61c-.23.2-.44.39-.67.6h-8.65c-.22.2-.43.4-.64.6h-6.35c-.22.2-.43.4-.65.6h-5.18c-.16.16-.29.29-.44.44-.64.24-1.31.07-1.97.12-.57.04-1.14-.07-1.71.08-.14.14-.28.28-.46.46h-1.08c-.24.2-.45.38-.68.57-.5-.05-.87.22-1.17.63h-.58c-.66.69-1.33,1.39-2.04,2.13v1.06c-.2.21-.4.42-.56.61v1.16c.26.3.64.49.57.96-.03.19.08.36.27.46.47.27.15.92.61,1.2.24.15.42.38.51.46.4.13.66.21.96.3-.24.26-.43.47-.62.68v.56c-.39.42-.86.77-1.16,1.26-.02.18-.05.37-.06.42-.31.37-.55.66-.8.96-.36-.41-.68-.78-1.18-.61-.47-.47-.88-.87-1.28-1.29-.26-.27-.5-.57-.74-.85.18-.65-.75-.86-.58-1.5-.17-.22-.33-.45-.55-.74v-4.59c.15-.16.33-.37.54-.6v-1.08c1.46-1.46,2.89-2.89,4.36-4.35.46.02.84-.21,1.14-.62.19-.01.38-.02.58-.03.2-.19.41-.38.62-.58.27-.04.65.13.76-.22.09-.27-.31-.39-.42-.61-.08-.16-.04-.37-.06-.63-.64-.64-1.3-1.35-2.01-1.99-.33-.29-.25-.68-.39-.99-.35-.35-.69-.69-1.04-1.04-.01-.19-.03-.38-.04-.59-.18-.2-.37-.4-.58-.62v-3.46c.2-.21.39-.42.58-.62.01-.21.02-.39.03-.58.62-.62,1.22-1.24,1.85-1.84.27-.26.57-.49.85-.74.64.18.86-.76,1.5-.58.22-.17.44-.34.73-.56h3.38c.22-.2.43-.39.66-.6h6.94c.2.19.41.38.63.58h.55c.83.83,1.65,1.65,2.51,2.51.22.7.06,1.47.08,2.23.02.66.08,1.34-.06,2-.49.25-.5.75-.61,1.19-.34.34-.69.69-1.04,1.04v.55c-.4.42-.8.84-1.17,1.23-.02.22-.03.41-.05.6-.34.34-.68.68-1.02,1.02-.12.27-.15.53.03.79.12.18.29.2.51.18.28-.03.57,0,.82,0,.17-.17.31-.31.44-.44.08-.05.15-.12.23-.13.19-.02.39,0,.58,0,2.42,0,4.83,0,7.25,0,.09,0,.18-.04.19-.05.33-.3.61-.56.88-.81v-12.79c.08-.08.14-.16.22-.21.07-.04.17-.07.26-.07,1.26,0,2.51,0,3.77,0,.08,0,.16.08.23.13.05.08.15.15.15.23,0,4.25,0,8.5,0,12.7.64.54,1.34.18,2,.28.2-.19.41-.38.63-.58h5.93ZM476.9,385.7h-9.94c-.21.19-.41.39-.63.58h-1.13c-.22.2-.43.39-.62.58-.21.01-.4.03-.53.04-.52.49-1,.96-1.48,1.41v.58c-.21.23-.4.43-.57.63-.02.22-.03.4-.05.56-.2.23-.38.44-.5.59v4.6c.31.34.58.62.82.88h13.98c.21-.25.46-.54.83-.98,0-2.58,0-5.36,0-8.15,0-.37.08-.76-.18-1.31ZM424.36,395.93c.83.83,1.64,1.64,2.46,2.46.51-.24.79-.75,1.23-1.07.36-.26.22-.68.39-.98.35-.35.69-.69,1.03-1.03.01-.19.02-.38.04-.59.38-.4.77-.81,1.17-1.22v-.55c.35-.35.69-.69,1.04-1.04.2-.29,0-.75.4-.98.46-.26.13-.93.61-1.19.08-.04.14-.13.21-.21-.35-.56-.89-.94-1.39-1.5-1.75,0-3.56,0-5.38,0-.18,0-.36.07-.53.1-.14.14-.27.27-.44.44-.8.15-1.66-.12-2.44.11-.18.18-.32.32-.45.45-.26.1-.61-.07-.78.21-.22.38-.14.93-.62,1.19-.06.03-.09.16-.1.24-.04.3.05.56.3.74.27.19.29.46.27.85.83.83,1.69,1.73,2.6,2.58.32.3.27.67.39.99Z"/>
  <path class="st0" d="M482.73,503.48c.1.29.14.37.15.46.01.09,0,.19,0,.29,0,4.06,0,8.12,0,12.18,0,.08.07.16.11.24.07.06.14.17.22.17,2.51,0,5.02,0,7.48,0,.25.22.47.41.71.63.25-.08.51-.17.75-.25v-12.94c.23-.2.51-.45.81-.7.15-.13.59-.11.78.05.15.12.28.27.41.41.83.17,1.71-.13,2.49.14.08.15.14.22.16.31.02.09,0,.19,0,.29,0,4.06,0,8.12,0,12.18,0,.09.05.17.07.26.07.07.14.2.21.2,1.35.01,2.7,0,4.04,0,.22.2.43.4.63.58h4.71c.08-.25.17-.5.25-.75-.22-.24-.4-.46-.61-.69v-1.69c-.2-.22-.4-.43-.59-.63v-2.88c.2-.22.4-.43.6-.65v-1.13c.44-.3.63-.71.63-1.21,1.03-1.03,2.05-2.05,3.1-3.1h1.12c.22-.2.43-.4.65-.6h6.36c.21.19.42.39.63.59h4.61l.86.86c0,.94,0,1.9,0,2.86,0,.07-.11.14-.17.22-.08.04-.16.11-.24.11-1.45,0-2.9,0-4.35,0-.08,0-.17-.06-.25-.09l-.41-.41c-.09-.03-.17-.07-.26-.07-1.84,0-3.67,0-5.54,0-.77.55-1.32,1.35-2.06,1.93.05.56-.21.93-.62,1.24v2.9c.18.19.37.4.57.61v.55c.2.22.4.43.57.63.04.79.05.8.84.83.4.38.81.77,1.23,1.17h2.27c.24.21.45.4.68.6h4.58c.17.17.3.3.46.46,1,.2,2.06,0,3.03.12.12.13.24.2.24.27.01,1.16,0,2.32,0,3.47q-.51.28-2.55.29c-.19-.16-.4-.34-.65-.56h-4.58c-.22-.2-.43-.39-.65-.6h-5.77c-.21-.2-.42-.39-.64-.6h-6.91c-.23-.21-.45-.4-.67-.6h-9.23c-.16-.16-.3-.3-.44-.44-.08-.04-.16-.11-.24-.11-6.54-.09-36.15-.03-38.82.08-.14.14-.27.27-.43.43-.73.16-1.5.04-2.26.06-.77.02-1.55,0-2.32,0h-4.19l-.55.55h-6.99c-.22-.21-.49-.47-.75-.71-.05-.1-.11-.18-.11-.26-.02-.19,0-.39,0-.58v-11.6c0-.1.01-.2,0-.29-.01-.09-.06-.17-.09-.25-.07-.07-.14-.19-.21-.19-.77-.01-1.54,0-2.3,0-.22.21-.43.4-.65.6h-1.14c-.24.69-1.07.35-1.41.85v1.14c-.2.21-.39.42-.6.64v10.4c-.5.5-.98.98-1.46,1.46h-2.29c-.22.2-.43.4-.65.6h-4.02c-.16.16-.29.29-.43.43-.08.04-.16.12-.24.12-2.5,0-5.01,0-7.34,0-.37-.26-.6-.42-.83-.58-.63.15-.85-.78-1.5-.58-.21-.18-.41-.39-.64-.55-.37-.25-.26-.67-.4-.99l-1.06-1.06v-1.7c-.2-.22-.39-.43-.6-.65v-1.72c.19-.2.39-.41.59-.63v-2.27c.21-.24.4-.45.6-.67v-1.06c.31-.33.57-.61.82-.88.23.21.44.4.66.6h1.12l.44.44c.34.23.74.05,1.1.13.17.04.31.18.46.27-.19.21-.38.42-.59.63v1.13c-.15.15-.29.29-.42.42-.05.08-.14.15-.14.23,0,1.15,0,2.3,0,3.39.2.2.37.32.46.48.08.15.06.36.13.53.07.16.2.3.3.45h.55c.22.2.43.4.6.55h5.81l.51-.51c1.14-.14,2.39.02,3.45-.07.41-.35.7-.6.97-.83v-9.32c.41-.31.67-.68.63-1.2.48-.48.96-.96,1.44-1.44q.67-.67,2.78-1.7c.08-.04.16-.09.23-.15.14-.13.28-.27.42-.42h2.29c.22-.2.43-.4.63-.58h5.21c.28.28.55.55.83.83.01.19.03.38.04.59.18.2.38.41.58.62v11.58c.15.1.3.28.45.29,1.06.03,2.13.02,3.19,0,.08,0,.16-.07.24-.11l.44-.44h9.81c.22-.2.43-.39.68-.61,7.49,0,15.02,0,22.56,0,.07,0,.15-.11.22-.17.04-.08.09-.16.11-.24.02-.09,0-.19,0-.29,0-4.06,0-8.12,0-12.18,0-.09.05-.17.08-.25.07-.07.14-.2.21-.2,1.35-.01,2.71,0,4.2,0Z"/>
  <path class="st0" d="M411.52,450.83c.77-.22,1.34-.11,1.96-.15.19.16.4.34.69.58.2,0,.48,0,.76,0,.51,0,.65.16.65.68,0,.19,0,.39,0,.58,0,.09-.04.17-.07.26-.14.14-.27.27-.41.41-.03.08-.1.17-.1.25,0,1.45,0,2.9,0,4.37.18.45.64.67.92,1.05.3.42.74.51,1.2.63.16.04.28.26.43.41.74.15,1.51.02,2.31.07.19-.16.4-.34.66-.56h4.57c.22-.2.43-.39.66-.6h1.13c.11-.15.3-.3.3-.45.02-2.61.01-5.22.01-7.89.15-.18.32-.39.55-.67v-1.06c.2-.23.39-.44.58-.66,0-.17.02-.36.03-.51.9-.9,1.79-1.79,2.7-2.7h.48c.24-.21.45-.4.67-.6h1.11c.17-.17.3-.3.44-.44.08-.04.16-.11.24-.11,2.42,0,4.83,0,7.25,0,.08,0,.17.06-.02-.01.51.4.81.64,1.07.85v12.82c.09.09.16.22.23.22.77.01,1.53,0,2.38,0,.15-.13.36-.33.58-.53h6.93c.22-.2.43-.39.64-.59h37.09c.19-.13.29-.28.29-.47,0-6.77,0-13.53,0-20.3,0-.37-.11-.76.1-1.09.1-.07.18-.17.25-.17.77-.01,1.53,0,2.25,0l.46.46c.34.23.74.05,1.1.13.17.04.31.18.47.28v21.46c.15.1.3.29.45.29,2.42.02,4.83.01,7.22.01.42.07.52.56.95.59.29.02.66-.17.66-.38,0-.57,0-1.14,0-1.66l-.47-.47c-.04-.08-.11-.16-.11-.24,0-1.84,0-3.67,0-5.51,0-.08.06-.17.09-.26.28-.25.57-.5.48-.94.3-.51.78-.85,1.16-1.27v-.59c.27-.26.55-.53.84-.81.51.05.87-.22,1.18-.63h.55c.22-.2.43-.4.65-.6h1.13c.23-.2.44-.4.6-.55h2.91l.44.44c.54.22,1.12.09,1.68.11.68.02,1.35,0,2.03,0,.57.01,1.14-.08,1.7.07.14.14.28.28.41.41.63.22,1.32-.06,1.95.2.06.07.17.14.17.22.01,1.16,0,2.31,0,3.43-.4.52-.93.17-1.36.34-.24-.22-.45-.4-.68-.61h-5.17c-.22-.2-.43-.4-.63-.58h-2.31c-.3.23-.46.64-.94.58-.34-.04-.45.32-.68.44-.32.16-.67.24-.99.35v.64c-.2.21-.39.42-.58.62-.01.21-.02.4-.03.59-.14.14-.27.27-.41.41-.05.08-.13.16-.13.23,0,.76,0,1.53,0,2.14.26.36.42.59.58.81-.16.64.78.85.58,1.5.35.42.6.96,1.28.97.31,0,.43.35.67.48.23.12.53.12.77.23.16.08.28.26.44.42h4.02c.22.2.43.39.66.6h4.65c.25.27.51.56.86.94,0,.83,0,1.79,0,2.75,0,.08-.09.15-.13.23-.08.05-.15.14-.23.14-1.54,0-3.08,0-4.56,0l-.47-.47c-.55-.21-1.12-.09-1.69-.1-.68-.02-1.35,0-2.03,0-.57-.01-1.14.08-1.7-.08-.14-.14-.28-.28-.41-.41-.09-.03-.17-.08-.26-.08-2.22,0-4.45,0-6.72,0-.18-.16-.4-.34-.65-.56h-8.63c-.22-.2-.43-.39-.66-.6h-42.32c-.2.19-.41.38-.63.58h-6.93c-.22.2-.43.4-.6.55h-4.65l-.85-.85v-12.75c-.15-.1-.3-.29-.45-.29-1.26-.02-2.51-.01-3.79-.01-.44.2-.7.62-1.05.93-.36.33-.69.68-1.03,1.02-.02.09-.07.17-.07.26,0,3.58,0,7.15,0,10.78-.16.19-.34.4-.55.64-.02.44,0,.93-.72.89-.15,0-.31.17-.46.27-.08.05-.14.13-.21.21-.56.17-1.13.07-1.7.08-.48.02-.97-.01-1.45,0-.56.02-1.14-.1-1.69.1l-.44.44h-4.59c-.22.2-.44.39-.67.6h-2.29c-.2-.18-.41-.37-.62-.57h-1.71c-.22-.2-.43-.4-.63-.57-.22-.02-.47.04-.58-.06-.84-.8-1.65-1.63-2.48-2.45-.19-.35-.01-.76-.12-1.11-.07-.25-.3-.46-.53-.77v-4c.13-.15.31-.36.53-.61v-1.68c.2-.22.4-.43.6-.64v-.72Z"/>
  <path class="st0" d="M520.9,403.11c-.21-.2-.42-.39-.64-.6h-2.87c-.15-.15-.29-.29-.44-.44-.33-.25-.72-.09-1.09-.12-.28-.03-.56-.03-.75-.04-.3-.22-.52-.51-.75-.52-.45,0-.66-.31-.96-.52-.21-.15-.54-.1-.77-.23-.29-.16-.1-.52-.26-.82-.09-.09-.23-.23-.36-.36-.17-.33-.2-3.98-.06-8.32.14-.14.27-.27.41-.41.19-.56.06-1.13.1-1.7.26-.53.75-.85,1.13-1.27.01-.19.02-.38.03-.57.39-.38.65-.95,1.39-.95.45-.25.78-.73,1.21-1.12h1.13c.22-.2.43-.4.63-.59h6.94c.22.2.43.4.65.6h3.45c.3.44.7.64,1.14.63.32.29.61.54.88.78v1.17c.21.23.4.44.55.61v12.18l-.44.44c-.24.54-.09,1.11-.12,1.68-.02.47,0,.95,0,1.35-.21.21-.35.35-.53.53-.02.23-.07.51-.04.78.05.46-.26.68-.56.97v1.25c-.39.3-.84.66-1.19.94v.7c-.71.71-1.39,1.39-2.09,2.09h-.53c-.35.35-.69.69-1.07,1.07-.42.05-.87.1-1.31.15-.16.16-.29.29-.43.43-.18.03-.36.08-.54.08-1.54,0-3.09,0-4.63,0-.08,0-.16-.07-.24-.11-.06-.07-.17-.14-.17-.22-.01-.96,0-1.92,0-2.86.6-.58,1.31-.18,1.99-.3.18-.16.39-.35.63-.56h1.69c.22-.2.42-.4.64-.6h.49c.73-.71,1.42-1.38,2.11-2.04v-.57c.24-.3.63-.47.58-.95-.04-.33.29-.46.46-.68.16-.22.15-.6.03-.78-.12-.19-.28-.21-.5-.21-1.64.02-3.28,0-4.91,0ZM526.98,398.87v-9.56c-.46-.09-1.08-.1-1.42-.71h-5.71c-.19,0-.39-.01-.58,0-.08,0-.16.07-.24.11-.82.82-1.63,1.63-2.49,2.49,0,2.07,0,4.18.02,6.3,0,.13.26.37.35.35.58-.11.79.44,1.21.58.56.14,1.14-.1,1.7.11.14.14.27.27.41.41.08.03.17.08.25.08,2.02,0,4.04,0,6.07,0,.08,0,.17-.06.44-.17Z"/>
  <path class="st0" d="M446.62,379.32h-.56c-.21-.2-.41-.39-.63-.59h-.56c-.28-.28-.55-.55-.84-.84v-1.72c.35-.53.81-.96,1.52-1,.86-.49.86-.5,1.58-.49.18.15.39.33.62.52.15.02.35,0,.51.07.15.07.37.22.37.35.03.76.02,1.52.02,2.25-.3.3-.57.57-.85.85-.19,0-.38.02-.58.03-.2.19-.4.38-.61.58Z"/>
  <path class="st0" d="M481.87,498.85c-.09.04-.45-.01-.76.28-.48.46-.65.41-1.17-.05-.07-.06-.14-.13-.2-.2-.18-.02-.37-.03-.6-.05-.24-.23-.52-.49-.78-.74-.21-.56-.08-1.13-.12-1.69.32-.71,1.03-1.06,1.41-1.61h1.79l1.43,1.43v1.78c-.25.21-.54.45-1.01.85Z"/>
  <path class="st0" d="M490.43,377.29c-.27.27-.54.54-.81.81-.51-.03-.89.2-1.18.6-.19.01-.37.03-.58.04-.2-.18-.4-.37-.63-.57h-.6c-.23-.26-.48-.55-.8-.91-.13-.44-.02-1.01-.05-1.61.4-.61.97-1.09,1.49-1.53h1.17c.29.46.71.61,1.14.63.31.28.59.54.85.78v1.76Z"/>
  <path class="st0" d="M493.62,378.74c-.47-.47-.94-.94-1.43-1.43v-1.24c.42-.37.92-.8,1.55-1.36.55-.11,1.31.02,2.06-.03.45.19.71.58,1.01.93,0,.28-.05.56.23.77.13.09.2.26.29.39-.45.27-.57.71-.6,1.11-.29.33-.54.61-.77.87-.82,0-1.59,0-2.35,0Z"/>
  <path class="st0" d="M489.56,529.59c-.27-.27-.54-.54-.87-.87,0-.61,0-1.28,0-1.95,0-.48,0-.5.67-.65.32-.07.46-.31.68-.48.54-.21,1.12-.07,1.74-.12.61.38,1.07.98,1.53,1.49v1.71c-.31.32-.57.6-.83.87h-2.91Z"/>
  <path class="st0" d="M424.56,527.29c.17.15.38.34.61.55h.51c.46.21.23.71.46.97.25.29.57.52.49.87-.74.73-1.42,1.41-2.22,2.21h-1.54c-.53-.34-.92-.82-1.02-1.52-.02-.15-.26-.28-.43-.45.16-.19.33-.39.51-.61,0-.16.02-.35.03-.56.33-.31.56-.9,1.04-.87.65.04.82-.89,1.55-.59Z"/>
  <path class="st0" d="M497.11,530.17c-.21-.2-.41-.39-.63-.59h-.55c-.6-.29.1-1.32-.82-1.26-.02-.32-.04-.51-.05-.72.18-.2.37-.4.57-.63v-.54c.15-.11.29-.31.43-.31.95-.03,1.89-.02,2.71-.01.39.35.67.61.93.85v.59c.19.22.37.42.55.62-.43.3-.64.69-.63,1.17-.28.29-.54.57-.79.83h-1.74Z"/>
  <path class="st0" d="M415.02,531.59v-1.72c.49-.49.96-.96,1.44-1.44h2.34c.24.26.5.54.81.88v1.67c-.3.52-.89.88-1.27,1.39-.69.22-1.36.05-2.01.12-.45.05-.69-.22-.95-.5-.13-.14-.25-.28-.37-.41Z"/>
  <path class="st0" d="M267.06,317.82c0-.27-.03-.55.02-.81.02-.12.23-.3.32-.28.19.04.27.24.24.42-.02.17-.05.34-.12.49-.08.19-.26.24-.46.18Z"/>
</svg>